<svg width="28" height="34" viewBox="0 0 28 34" fill="none" xmlns="http://www.w3.org/2000/svg">
<path d="M23.1705 17.7191C23.1318 13.5292 26.6891 11.4908 26.8518 11.3959C24.8371 8.53203 21.7145 8.14073 20.6171 8.10953C17.9945 7.84043 15.4505 9.63963 14.1145 9.63963C12.7518 9.63963 10.6945 8.13553 8.47713 8.17973C5.62379 8.22263 2.95446 9.83333 1.49046 12.3345C-1.53088 17.4344 0.722459 24.9289 3.61713 29.0512C5.06513 31.0701 6.75712 33.3243 8.97179 33.245C11.1385 33.1579 11.9478 31.8982 14.5625 31.8982C17.1531 31.8982 17.9131 33.245 20.1718 33.1943C22.4971 33.1579 23.9611 31.1663 25.3585 29.1292C27.0318 26.8152 27.7038 24.5363 27.7305 24.4193C27.6758 24.4011 23.2145 22.741 23.1705 17.7191Z" fill="black"/>
<path d="M18.9038 5.39773C20.0691 3.97683 20.8665 2.04373 20.6451 0.0820312C18.9585 0.154831 16.8491 1.21953 15.6345 2.60923C14.5598 3.83383 13.5998 5.84103 13.8478 7.72863C15.7425 7.86643 17.6878 6.79653 18.9038 5.39773Z" fill="black"/>
</svg>
