<svg width="16" height="16" viewBox="0 0 16 16" fill="none" xmlns="http://www.w3.org/2000/svg">
<path d="M1.33331 7.99984C1.33331 5.48568 1.33331 4.2286 2.11436 3.44755C2.89541 2.6665 4.15249 2.6665 6.66665 2.6665H9.33331C11.8475 2.6665 13.1045 2.6665 13.8856 3.44755C14.6666 4.2286 14.6666 5.48568 14.6666 7.99984V9.33317C14.6666 11.8473 14.6666 13.1044 13.8856 13.8855C13.1045 14.6665 11.8475 14.6665 9.33331 14.6665H6.66665C4.15249 14.6665 2.89541 14.6665 2.11436 13.8855C1.33331 13.1044 1.33331 11.8473 1.33331 9.33317V7.99984Z" stroke="#464547"/>
<path d="M4.66669 2.6665V1.6665" stroke="#464547" stroke-linecap="round"/>
<path d="M11.3333 2.6665V1.6665" stroke="#464547" stroke-linecap="round"/>
<path d="M1.66669 6H14.3334" stroke="#464547" stroke-linecap="round"/>
</svg>
