<svg width="25" height="24" viewBox="0 0 25 24" fill="none" xmlns="http://www.w3.org/2000/svg">
<path d="M11.3693 21.5102L12.0147 21.8922L11.3693 21.5102ZM11.6288 21.0719L10.9833 20.6899L11.6288 21.0719ZM9.37121 21.0719L10.0166 20.6899L10.0166 20.6899L9.37121 21.0719ZM9.63064 21.5102L8.98523 21.8922L9.63064 21.5102ZM2.80448 17.1308L3.49739 16.8438H3.49739L2.80448 17.1308ZM6.78931 19.585L6.81328 18.8354L6.78931 19.585ZM4.96927 19.2956L4.68225 19.9885H4.68225L4.96927 19.2956ZM18.1955 17.1308L18.8884 17.4178L18.8884 17.4178L18.1955 17.1308ZM14.2107 19.585L14.1867 18.8354L14.2107 19.585ZM16.0307 19.2956L16.3177 19.9885L16.0307 19.2956ZM16.59 6.58944L16.9819 5.94996V5.94996L16.59 6.58944ZM17.9106 7.91001L18.55 7.51814V7.51814L17.9106 7.91001ZM4.41001 6.58944L4.01813 5.94996V5.94996L4.41001 6.58944ZM3.08944 7.91001L2.44996 7.51814H2.44996L3.08944 7.91001ZM8.41637 19.8223L8.03453 20.4679H8.03453L8.41637 19.8223ZM12.0147 21.8922L12.2742 21.4539L10.9833 20.6899L10.7239 21.1282L12.0147 21.8922ZM8.72579 21.4539L8.98523 21.8922L10.2761 21.1282L10.0166 20.6899L8.72579 21.4539ZM10.7239 21.1282C10.6785 21.2049 10.5992 21.25 10.5 21.25C10.4007 21.25 10.3215 21.2049 10.2761 21.1282L8.98523 21.8922C9.66217 23.0359 11.3378 23.0359 12.0147 21.8922L10.7239 21.1282ZM9.3 6.75H11.7V5.25H9.3V6.75ZM17.75 12.8V13.6H19.25V12.8H17.75ZM3.25 13.6V12.8H1.75V13.6H3.25ZM1.75 13.6C1.75 14.5217 1.74959 15.2504 1.7898 15.8397C1.83047 16.4357 1.91517 16.9436 2.11157 17.4178L3.49739 16.8438C3.38931 16.5828 3.32178 16.2573 3.28632 15.7376C3.25041 15.2112 3.25 14.5422 3.25 13.6H1.75ZM6.81328 18.8354C6.02102 18.81 5.59046 18.7411 5.25628 18.6027L4.68225 19.9885C5.27912 20.2357 5.93744 20.3081 6.76533 20.3346L6.81328 18.8354ZM2.11157 17.4178C2.59367 18.5817 3.51837 19.5064 4.68225 19.9885L5.25628 18.6027C4.45994 18.2728 3.82725 17.6401 3.49739 16.8438L2.11157 17.4178ZM17.75 13.6C17.75 14.5422 17.7496 15.2112 17.7137 15.7376C17.6782 16.2573 17.6107 16.5828 17.5026 16.8438L18.8884 17.4178C19.0848 16.9436 19.1695 16.4357 19.2102 15.8397C19.2504 15.2504 19.25 14.5217 19.25 13.6H17.75ZM14.2346 20.3346C15.0625 20.3081 15.7209 20.2357 16.3177 19.9885L15.7437 18.6027C15.4095 18.7411 14.979 18.81 14.1867 18.8354L14.2346 20.3346ZM17.5026 16.8438C17.1728 17.6401 16.5401 18.2728 15.7437 18.6027L16.3177 19.9885C17.4816 19.5064 18.4063 18.5817 18.8884 17.4178L17.5026 16.8438ZM11.7 6.75C13.0239 6.75 13.9641 6.75079 14.6953 6.82031C15.4154 6.88877 15.8548 7.01855 16.1981 7.22892L16.9819 5.94996C16.3633 5.57089 15.6671 5.40595 14.8373 5.32705C14.0187 5.24921 12.9949 5.25 11.7 5.25V6.75ZM19.25 12.8C19.25 11.5052 19.2508 10.4814 19.173 9.6627C19.0941 8.83288 18.9291 8.13673 18.55 7.51814L17.2711 8.30189C17.4814 8.64518 17.6112 9.08466 17.6797 9.80468C17.7492 10.5359 17.75 11.4761 17.75 12.8H19.25ZM16.1981 7.22892C16.6354 7.4969 17.0031 7.86458 17.2711 8.30189L18.55 7.51814C18.1584 6.879 17.621 6.34163 16.9819 5.94996L16.1981 7.22892ZM9.3 5.25C8.00515 5.25 6.98135 5.24921 6.16269 5.32705C5.33287 5.40595 4.63672 5.57089 4.01813 5.94996L4.80188 7.22892C5.14517 7.01855 5.58465 6.88877 6.30467 6.82031C7.03585 6.75079 7.97611 6.75 9.3 6.75V5.25ZM3.25 12.8C3.25 11.4761 3.25079 10.5359 3.32031 9.80468C3.38877 9.08466 3.51855 8.64518 3.72892 8.30189L2.44996 7.51814C2.07089 8.13673 1.90595 8.83288 1.82705 9.6627C1.74921 10.4814 1.75 11.5052 1.75 12.8H3.25ZM4.01813 5.94996C3.37899 6.34163 2.84162 6.879 2.44996 7.51814L3.72892 8.30189C3.9969 7.86458 4.36458 7.4969 4.80188 7.22892L4.01813 5.94996ZM10.0166 20.6899C9.81582 20.3506 9.63969 20.0516 9.46888 19.8164C9.28917 19.569 9.08327 19.3454 8.79822 19.1768L8.03453 20.4679C8.08064 20.4951 8.14427 20.5451 8.25524 20.6979C8.37511 20.863 8.51082 21.0907 8.7258 21.4539L10.0166 20.6899ZM6.76533 20.3346C7.21078 20.3489 7.49552 20.3587 7.71182 20.3851C7.91631 20.41 7.99305 20.4433 8.03453 20.4679L8.79822 19.1768C8.50853 19.0055 8.20371 18.9339 7.89344 18.8961C7.59498 18.8597 7.23177 18.8488 6.81328 18.8354L6.76533 20.3346ZM12.2742 21.4539C12.4891 21.0907 12.6249 20.863 12.7447 20.6979C12.8557 20.5451 12.9193 20.4951 12.9654 20.4679L12.2018 19.1768C11.9167 19.3454 11.7108 19.569 11.5311 19.8164C11.3603 20.0516 11.1841 20.3506 10.9833 20.6899L12.2742 21.4539ZM14.1867 18.8354C13.7682 18.8488 13.405 18.8597 13.1065 18.8961C12.7963 18.9339 12.4914 19.0055 12.2018 19.1768L12.9654 20.4679C13.0069 20.4433 13.0837 20.41 13.2881 20.3851C13.5044 20.3587 13.7892 20.3489 14.2346 20.3346L14.1867 18.8354Z" fill="#202020"/>
<path d="M22.2145 12.4351L22.9074 12.7221V12.7221L22.2145 12.4351ZM20.185 14.4646L20.472 15.1575H20.472L20.185 14.4646ZM20.7093 2.5526L20.3174 3.19208V3.19208L20.7093 2.5526ZM21.9473 3.79064L22.5868 3.39876V3.39876L21.9473 3.79064ZM9.29058 2.5526L8.8987 1.91312V1.91312L9.29058 2.5526ZM8.05255 3.79064L7.41307 3.39876H7.41307L8.05255 3.79064ZM13.8749 2.75H16.1249V1.25H13.8749V2.75ZM21.7499 8.37503V9.12503H23.2499V8.37503H21.7499ZM21.7499 9.12503C21.7499 10.0089 21.7495 10.6343 21.716 11.1258C21.6829 11.6106 21.6201 11.9101 21.5216 12.1481L22.9074 12.7221C23.0943 12.2709 23.1742 11.7891 23.2125 11.2279C23.2504 10.6735 23.2499 9.98841 23.2499 9.12503H21.7499ZM21.5216 12.1481C21.2171 12.8832 20.6331 13.4672 19.898 13.7717L20.472 15.1575C21.5747 14.7008 22.4507 13.8247 22.9074 12.7221L21.5216 12.1481ZM16.1249 2.75C17.367 2.75 18.2459 2.75079 18.9286 2.81571C19.6002 2.87956 20.0042 3.00013 20.3174 3.19208L21.1012 1.91312C20.5127 1.55247 19.852 1.39674 19.0706 1.32244C18.3004 1.24921 17.338 1.25 16.1249 1.25V2.75ZM23.2499 8.37503C23.2499 7.16201 23.2507 6.19958 23.1775 5.42935C23.1032 4.64796 22.9475 3.98729 22.5868 3.39876L21.3079 4.18251C21.4998 4.49574 21.6204 4.89973 21.6842 5.57133C21.7492 6.25408 21.7499 7.13296 21.7499 8.37503H23.2499ZM20.3174 3.19208C20.7211 3.43945 21.0605 3.77884 21.3079 4.18251L22.5868 3.39876C22.2158 2.79326 21.7067 2.28417 21.1012 1.91312L20.3174 3.19208ZM13.8749 1.25C12.6619 1.25 11.6995 1.24921 10.9293 1.32244C10.1479 1.39674 9.48723 1.55247 8.8987 1.91312L9.68245 3.19208C9.99568 3.00013 10.3997 2.87956 11.0713 2.81571C11.754 2.75079 12.6329 2.75 13.8749 2.75V1.25ZM8.8987 1.91312C8.2932 2.28417 7.78412 2.79326 7.41307 3.39876L8.69203 4.18251C8.93939 3.77884 9.27879 3.43945 9.68245 3.19208L8.8987 1.91312ZM8.28219 6.03896C8.33215 5.07858 8.45706 4.56594 8.69203 4.18251L7.41307 3.39876C6.97594 4.11209 6.83747 4.93717 6.78422 5.96104L8.28219 6.03896ZM18.5249 15.4848C19.2916 15.4593 19.9094 15.3906 20.472 15.1575L19.898 13.7717C19.596 13.8968 19.2039 13.9614 18.4751 13.9857L18.5249 15.4848Z" fill="#202020"/>
<path d="M7.00879 13H7.01779M10.4995 13H10.5085M13.9905 13H13.9995" stroke="#202020" stroke-width="2" stroke-linecap="round" stroke-linejoin="round"/>
</svg>
