<svg width="124" height="124" viewBox="0 0 124 124" fill="none" xmlns="http://www.w3.org/2000/svg">
<path d="M64.6029 108.516C62.9277 109.161 61.072 109.161 59.3968 108.516C46.3256 103.5 35.0841 94.6395 27.1574 83.1039C19.2306 71.5686 14.9915 57.9013 15 43.9074V22.2269C15 20.3102 15.7618 18.472 17.1178 17.1167C18.4739 15.7614 20.3131 15 22.2308 15H101.769C103.686 15 105.526 15.7614 106.882 17.1167C108.238 18.472 109 20.3102 109 22.2269V43.9074C109.008 57.9013 104.769 71.5686 96.8427 83.1039C88.9154 94.6395 77.6742 103.5 64.6029 108.516Z" stroke="#202020" stroke-width="5" stroke-linecap="round" stroke-linejoin="round"/>
<path d="M84 40L54.6667 73L40 62" stroke="#6FA479" stroke-width="5" stroke-linecap="round" stroke-linejoin="round"/>
</svg>
