<svg width="24" height="20" viewBox="0 0 24 20" fill="none" xmlns="http://www.w3.org/2000/svg">
<path d="M15.7007 14.7309V3.09856C15.7007 2.15178 14.9332 1.38428 13.9864 1.38428H2.91838C1.97162 1.38428 1.2041 2.15178 1.2041 3.09856V14.4568C1.2041 15.4036 1.97162 16.1711 2.91838 16.1711H4.2041M22.7959 9.497H15.7031M20.489 15.8512H21.0799C22.0267 15.8512 22.7942 15.0837 22.7942 14.1369V8.99247L20.4072 4.10528C20.1197 3.51666 19.5219 3.14334 18.8667 3.14334H16.0099M14.7037 16.1708H9.66797M4.28914 16.2227C4.28914 16.8574 4.54128 17.4661 4.99008 17.9149C5.43888 18.3637 6.04758 18.6158 6.68229 18.6158C7.31699 18.6158 7.92569 18.3637 8.37449 17.9149C8.82329 17.4661 9.07543 16.8574 9.07543 16.2227C9.07543 15.588 8.82329 14.9793 8.37449 14.5305C7.92569 14.0817 7.31699 13.8296 6.68229 13.8296C6.04758 13.8296 5.43888 14.0817 4.99008 14.5305C4.54128 14.9793 4.28914 15.588 4.28914 16.2227ZM15.1526 16.2227C15.1526 16.8574 15.4047 17.4661 15.8535 17.9149C16.3023 18.3637 16.911 18.6158 17.5457 18.6158C18.1804 18.6158 18.7891 18.3637 19.2379 17.9149C19.6867 17.4661 19.9389 16.8574 19.9389 16.2227C19.9389 15.588 19.6867 14.9793 19.2379 14.5305C18.7891 14.0817 18.1804 13.8296 17.5457 13.8296C16.911 13.8296 16.3023 14.0817 15.8535 14.5305C15.4047 14.9793 15.1526 15.588 15.1526 16.2227Z" stroke="#202020" stroke-width="1.71429" stroke-linecap="round" stroke-linejoin="round"/>
</svg>
