<svg width="20" height="20" viewBox="0 0 20 20" fill="none" xmlns="http://www.w3.org/2000/svg">
<rect width="20" height="20" fill="#202020"/>
<path d="M18.3337 10.0001C18.3337 13.9285 18.3337 15.8926 17.1133 17.113C15.8929 18.3334 13.9287 18.3334 10.0003 18.3334C6.07195 18.3334 4.10777 18.3334 2.88738 17.113C1.66699 15.8926 1.66699 13.9285 1.66699 10.0001C1.66699 6.07171 1.66699 4.10752 2.88738 2.88714C4.10777 1.66675 6.07195 1.66675 10.0003 1.66675" stroke="white" stroke-linecap="round"/>
<path d="M1.66699 10.4167L3.12665 9.13951C3.88604 8.47505 5.03056 8.51316 5.74406 9.22667L9.31883 12.8014C9.89153 13.3741 10.793 13.4522 11.4557 12.9865L11.7042 12.8119C12.6577 12.1418 13.9478 12.2194 14.814 12.999L17.5003 15.4167" stroke="white" stroke-linecap="round"/>
<path d="M15.468 2.44624L15.8156 2.09866C16.3915 1.52278 17.3252 1.52278 17.9011 2.09866C18.477 2.67455 18.477 3.60825 17.9011 4.18414L17.5535 4.53172M15.468 2.44624C15.468 2.44624 15.5115 3.18485 16.1632 3.83656C16.8149 4.48828 17.5535 4.53172 17.5535 4.53172M15.468 2.44624L12.2726 5.64171C12.0561 5.85815 11.9479 5.96636 11.8548 6.08569C11.7451 6.22644 11.6509 6.37874 11.5741 6.53988C11.509 6.67649 11.4606 6.82168 11.3638 7.11206L11.0539 8.04175M17.5535 4.53172L14.358 7.72719C14.1416 7.94362 14.0334 8.05184 13.9141 8.14491C13.7733 8.2547 13.621 8.34882 13.4599 8.42562C13.3233 8.49072 13.1781 8.53912 12.8877 8.63591L11.958 8.94581M11.958 8.94581L11.3564 9.14633C11.2136 9.19396 11.056 9.15677 10.9495 9.05026C10.843 8.94375 10.8058 8.78621 10.8534 8.64331L11.0539 8.04175M11.958 8.94581L11.0539 8.04175" stroke="white"/>
</svg>
