<svg width="18" height="19" viewBox="0 0 18 19" fill="none" xmlns="http://www.w3.org/2000/svg">
<path fill-rule="evenodd" clip-rule="evenodd" d="M0.0419922 9.50008C0.0419922 4.55253 4.05277 0.541748 9.00033 0.541748C9.3455 0.541748 9.62533 0.82157 9.62533 1.16675C9.62533 1.51193 9.3455 1.79175 9.00033 1.79175C4.74313 1.79175 1.29199 5.24289 1.29199 9.50008C1.29199 13.7573 4.74313 17.2084 9.00033 17.2084C13.2575 17.2084 16.7087 13.7573 16.7087 9.50008C16.7087 9.1549 16.9885 8.87508 17.3337 8.87508C17.6788 8.87508 17.9587 9.1549 17.9587 9.50008C17.9587 14.4476 13.9479 18.4584 9.00033 18.4584C4.05277 18.4584 0.0419922 14.4476 0.0419922 9.50008ZM12.9758 1.39668C14.1157 0.256772 15.9638 0.256772 17.1037 1.39668C18.2436 2.53658 18.2436 4.38473 17.1037 5.52464L11.5636 11.0647C11.2542 11.3742 11.0604 11.568 10.8441 11.7367C10.5894 11.9354 10.3138 12.1058 10.0221 12.2448C9.7745 12.3628 9.51445 12.4494 9.09931 12.5878L6.67887 13.3946C6.232 13.5435 5.73933 13.4272 5.40625 13.0942C5.07317 12.7611 4.95687 12.2684 5.10583 11.8215L5.91263 9.40111C6.05098 8.98596 6.13765 8.72591 6.25566 8.47829C6.39465 8.18665 6.565 7.91101 6.7637 7.65626C6.9324 7.43997 7.12624 7.24615 7.4357 6.93674L12.9758 1.39668ZM16.2198 2.28056C15.5681 1.62881 14.5114 1.62881 13.8597 2.28056L13.5458 2.59441C13.5647 2.6743 13.5912 2.76947 13.628 2.87563C13.7474 3.21985 13.9734 3.67318 14.4003 4.10008C14.8272 4.52697 15.2806 4.75297 15.6248 4.87239C15.7309 4.90922 15.8261 4.93569 15.906 4.95461L16.2198 4.64076C16.8716 3.98901 16.8716 2.93231 16.2198 2.28056ZM14.9213 5.93932C14.4913 5.75441 13.9905 5.45796 13.5164 4.98396C13.0424 4.50995 12.746 4.0091 12.5611 3.57913L8.34825 7.79196C8.00115 8.13906 7.86503 8.27671 7.74934 8.42504C7.60647 8.6082 7.48399 8.80638 7.38406 9.01607C7.30313 9.18588 7.24089 9.36919 7.08566 9.83487L6.72575 10.9146L7.5858 11.7747L8.66554 11.4147C9.13122 11.2595 9.31453 11.1973 9.48434 11.1163C9.69403 11.0164 9.89221 10.8939 10.0754 10.7511C10.2237 10.6354 10.3613 10.4993 10.7084 10.1522L14.9213 5.93932Z" fill="#464547"/>
</svg>
