<svg width="65" height="64" viewBox="0 0 65 64" fill="none" xmlns="http://www.w3.org/2000/svg">
<path d="M59.1667 32H43.1667L37.8334 40H27.1667L21.8334 32H5.83337" stroke="#464547" stroke-width="2" stroke-linecap="round" stroke-linejoin="round"/>
<path d="M15.0334 13.6267L5.83337 32.0001V48.0001C5.83337 49.4146 6.39528 50.7711 7.39547 51.7713C8.39566 52.7715 9.75222 53.3334 11.1667 53.3334H53.8334C55.2479 53.3334 56.6044 52.7715 57.6046 51.7713C58.6048 50.7711 59.1667 49.4146 59.1667 48.0001V32.0001L49.9667 13.6267C49.5252 12.7382 48.8445 11.9904 48.0013 11.4675C47.158 10.9446 46.1856 10.6673 45.1934 10.6667H19.8067C18.8145 10.6673 17.8421 10.9446 16.9988 11.4675C16.1556 11.9904 15.4749 12.7382 15.0334 13.6267Z" stroke="#464547" stroke-width="2" stroke-linecap="round" stroke-linejoin="round"/>
</svg>
