<svg width="17" height="16" viewBox="0 0 17 16" fill="none" xmlns="http://www.w3.org/2000/svg">
<path fill-rule="evenodd" clip-rule="evenodd" d="M3.94827 8.00006C3.94827 7.48043 4.03452 6.98218 4.18865 6.51493L1.4924 4.45605C0.966898 5.52293 0.670898 6.72518 0.670898 8.00006C0.670898 9.27393 0.966648 10.4753 1.49127 11.5416L4.18602 9.47868C4.0334 9.01356 3.94827 8.51718 3.94827 8.00006Z" fill="#FBBC05"/>
<path fill-rule="evenodd" clip-rule="evenodd" d="M8.68206 3.27275C9.81094 3.27275 10.8306 3.67275 11.6317 4.32725L13.9622 2C12.5421 0.763625 10.7213 0 8.68206 0C5.51606 0 2.79506 1.8105 1.49219 4.456L4.18831 6.51487C4.80956 4.62912 6.58044 3.27275 8.68206 3.27275Z" fill="#EA4335"/>
<path fill-rule="evenodd" clip-rule="evenodd" d="M8.68206 12.7275C6.58056 12.7275 4.80969 11.3711 4.18844 9.48535L1.49219 11.5439C2.79506 14.1897 5.51606 16.0002 8.68206 16.0002C10.6361 16.0002 12.5017 15.3064 13.9018 14.0064L11.3426 12.0279C10.6204 12.4827 9.71106 12.7275 8.68206 12.7275Z" fill="#34A853"/>
<path fill-rule="evenodd" clip-rule="evenodd" d="M16.3288 8.0004C16.3288 7.52765 16.2559 7.01852 16.1466 6.5459H8.68164V9.63677H12.9786C12.7638 10.6906 12.179 11.5008 11.3421 12.028L13.9014 14.0065C15.3721 12.6415 16.3288 10.608 16.3288 8.0004Z" fill="#4285F4"/>
</svg>
