<svg width="24" height="24" viewBox="0 0 24 24" fill="none" xmlns="http://www.w3.org/2000/svg">
    <path
        d="M12.4973 6.86903C9.65795 6.86903 7.36644 9.16058 7.36644 12C7.36644 14.8394 9.65795 17.131 12.4973 17.131C15.3367 17.131 17.6282 14.8394 17.6282 12C17.6282 9.16058 15.3367 6.86903 12.4973 6.86903ZM12.4973 15.3348C10.6611 15.3348 9.16262 13.8362 9.16262 12C9.16262 10.1638 10.6611 8.66525 12.4973 8.66525C14.3335 8.66525 15.832 10.1638 15.832 12C15.832 13.8362 14.3335 15.3348 12.4973 15.3348ZM17.8383 5.46308C17.1754 5.46308 16.64 5.99845 16.64 6.66139C16.64 7.32434 17.1754 7.8597 17.8383 7.8597C18.5013 7.8597 19.0366 7.32684 19.0366 6.66139C19.0368 6.50397 19.0059 6.34806 18.9458 6.20259C18.8856 6.05711 18.7974 5.92493 18.6861 5.81362C18.5748 5.70231 18.4426 5.61405 18.2971 5.5539C18.1516 5.49375 17.9957 5.46289 17.8383 5.46308ZM22.4989 12C22.4989 10.6191 22.5114 9.25064 22.4338 7.87221C22.3563 6.27113 21.9911 4.85017 20.8203 3.67938C19.647 2.50609 18.2286 2.14334 16.6275 2.06579C15.2466 1.98824 13.8782 2.00074 12.4998 2.00074C11.1189 2.00074 9.75051 1.98824 8.3721 2.06579C6.77105 2.14334 5.35012 2.50859 4.17935 3.67938C3.00608 4.85267 2.64334 6.27113 2.56579 7.87221C2.48824 9.25314 2.50074 10.6216 2.50074 12C2.50074 13.3784 2.48824 14.7494 2.56579 16.1278C2.64334 17.7289 3.00858 19.1498 4.17935 20.3206C5.35262 21.4939 6.77105 21.8567 8.3721 21.9342C9.75301 22.0118 11.1214 21.9993 12.4998 21.9993C13.8807 21.9993 15.2491 22.0118 16.6275 21.9342C18.2286 21.8567 19.6495 21.4914 20.8203 20.3206C21.9936 19.1473 22.3563 17.7289 22.4338 16.1278C22.5139 14.7494 22.4989 13.3809 22.4989 12ZM20.2974 17.899C20.1148 18.3543 19.8947 18.6945 19.5419 19.0448C19.1892 19.3975 18.8515 19.6176 18.3962 19.8003C17.0803 20.3231 13.9558 20.2055 12.4973 20.2055C11.0389 20.2055 7.9118 20.3231 6.59593 19.8028C6.14064 19.6201 5.80041 19.4 5.45018 19.0473C5.09745 18.6945 4.87731 18.3568 4.69469 17.9015C4.17434 16.5831 4.29192 13.4585 4.29192 12C4.29192 10.5415 4.17434 7.4144 4.69469 6.09851C4.87731 5.6432 5.09745 5.30298 5.45018 4.95274C5.80291 4.6025 6.14064 4.37985 6.59593 4.19723C7.9118 3.67688 11.0389 3.79446 12.4973 3.79446C13.9558 3.79446 17.0828 3.67688 18.3987 4.19723C18.854 4.37985 19.1942 4.6 19.5444 4.95274C19.8972 5.30548 20.1173 5.6432 20.2999 6.09851C20.8203 7.4144 20.7027 10.5415 20.7027 12C20.7027 13.4585 20.8203 16.5831 20.2974 17.899Z"
        fill="#202020" />
</svg>