<svg width="205" height="41" viewBox="0 0 205 41" fill="none" xmlns="http://www.w3.org/2000/svg">
<g clip-path="url(#clip0_315_7724)">
<path d="M78.067 7.09844C77.9467 7.08196 77.9165 7.06768 77.9061 7.05779C77.8654 6.98472 77.7962 6.91714 77.7226 6.88033L77.6879 6.8622H77.6616C77.6511 6.85615 77.6292 6.84407 77.6088 6.82374C77.5478 6.75067 77.4621 6.70782 77.3665 6.70342C77.1973 6.69738 76.9309 6.77869 76.3073 7.47973C75.12 8.87687 73.3498 12.0568 71.9033 15.3934C71.1599 17.135 70.4122 19.1024 69.6155 21.4143C69.3546 22.217 69.1386 22.773 69.0859 22.8708C69.0332 22.9219 68.8865 23.0438 68.7414 23.1477C68.487 23.3394 68.3404 23.4899 68.4052 23.6509C68.4255 23.6998 68.4783 23.7773 68.6173 23.7795C68.6277 23.8141 68.6458 23.8405 68.67 23.8652C68.5052 24.0465 68.3382 24.23 68.1689 24.4151L67.9981 24.2646C67.7596 24.5151 67.4827 24.8107 67.169 25.1365C67.1405 25.1568 67.1036 25.1876 67.0751 25.2343C63.6039 28.8538 56.0754 36.2642 51.6637 34.9483C50.0463 34.4654 48.9711 32.8117 48.4678 30.029C47.5492 25.2096 53.0306 12.1546 58.9845 7.25392C61.1333 5.48594 63.1133 4.94587 64.867 5.64856L64.967 5.68922L65.0445 5.61395C65.189 5.4733 65.2582 5.30408 65.2401 5.12278C65.189 4.58107 64.3868 4.05968 63.855 3.71301C63.7655 3.65367 63.688 3.60313 63.627 3.56247L63.5902 3.5361L63.5452 3.53225C60.7278 3.27788 58.1126 4.52613 55.5502 7.34952C53.3949 9.7268 51.5599 12.8881 49.7122 16.1982C47.2943 20.9995 45.3901 27.7028 47.2987 32.1189C48.1805 34.1577 49.8023 35.539 52.1203 36.2274L52.1384 36.2312C52.4175 36.2801 52.7026 36.3043 52.996 36.3043C57.5341 36.3043 63.6001 30.546 68.5887 24.6975C68.2118 26.0848 67.9387 27.3028 67.7432 28.4698C67.6086 29.2356 67.5498 30.4641 67.6289 30.9179C67.6756 31.0871 67.8124 31.431 67.9975 31.5146C68.0343 31.531 68.0728 31.5371 68.1096 31.5349L68.1909 31.6959L68.2014 31.5739C68.2464 31.5904 68.297 31.6003 68.3502 31.6003C68.3563 31.6003 68.3728 31.6063 68.3849 31.6124C68.4338 31.6816 68.5151 31.7365 68.5969 31.7552C68.6684 31.7959 68.7255 31.8145 68.7821 31.8145C68.8513 31.8145 68.9205 31.7882 69.0183 31.7393C69.2689 31.5887 69.5721 31.1443 70.5275 29.1279C71.2912 27.5044 71.6093 26.8507 72.106 25.9238C73.8861 22.6889 75.8436 20.0655 76.9743 19.4013L76.9907 19.3908C77.0232 19.3744 77.0561 19.3562 77.0863 19.3397C77.0885 19.4337 77.0863 19.5798 77.0803 19.7408L77.0765 19.8732C77.0523 20.4556 77.0034 21.0341 76.8221 22.2543L76.7853 22.5109C76.4738 24.6723 76.4474 24.8492 76.4474 26.0266C76.4474 27.2039 76.4941 27.6193 76.6671 28.0654C76.7957 28.3972 76.9358 28.5725 77.1847 28.7109L77.2028 28.7192C77.3006 28.7576 77.3737 28.817 77.4023 28.8455C77.5143 28.9576 77.7649 29.0247 77.9093 28.9758C77.9989 28.9411 78.0599 28.8719 78.0824 28.7824C78.1132 28.6642 78.0659 28.5214 77.9418 28.3747C77.7583 28.1912 77.7808 27.4539 78.0599 24.2234C78.2231 22.384 78.2698 21.6324 78.2698 20.883C78.2923 19.8034 78.2516 19.5183 78.0088 19.0865L77.9945 19.0639C77.8478 18.8442 77.789 18.7706 77.5033 18.6931C77.3545 18.6442 77.2424 18.5893 77.2204 18.5711L77.1797 18.5426C76.7479 18.3124 75.982 18.7563 74.8393 19.899C73.6537 21.0863 72.3911 22.8279 71.0874 25.0788C70.7226 25.698 70.1034 26.904 69.6677 27.7918C69.9589 26.6001 70.4094 24.8706 70.7413 23.7443V23.7405C71.1813 22.1192 71.1956 22.1005 71.4275 21.7912L71.4599 21.7483C71.9774 21.0577 72.9043 19.6073 73.8229 18.0536C75.7172 14.8313 78.1005 10.0059 78.5445 8.48789C78.6604 8.04781 78.6994 7.81981 78.5813 7.46929C78.461 7.20063 78.3879 7.14734 78.0555 7.0924L78.0659 7.09624L78.067 7.09844ZM58.5285 33.5012L58.5511 33.5073L58.5269 33.5012H58.5291H58.5285ZM58.2351 33.8045C58.2351 33.8045 58.2313 33.7864 58.2247 33.7759C58.2269 33.7798 58.2308 33.7864 58.2351 33.7902C58.2373 33.7924 58.2412 33.7962 58.2434 33.7984C58.2412 33.7984 58.2373 33.8023 58.2351 33.8045ZM58.0313 33.9325C58.0313 33.9325 58.0352 33.9363 58.0374 33.9385C58.0352 33.9385 58.0335 33.9385 58.0313 33.9347V33.9325ZM48.1563 26.4694H48.1503C48.1464 26.4122 48.1503 26.3002 48.1667 26.3595C48.1893 26.382 48.1893 26.4265 48.1667 26.4716C48.1629 26.4716 48.1585 26.4694 48.1547 26.4677L48.1569 26.4699L48.1563 26.4694ZM48.2233 26.1271L48.2151 26.0579L48.2008 26.0639C48.203 26.0518 48.2091 26.0458 48.2151 26.0579C48.2316 26.0744 48.2332 26.1029 48.2233 26.1271ZM49.4436 21.1226C49.4331 21.1187 49.4232 21.1143 49.415 21.1083C49.4188 21.0962 49.4232 21.0841 49.4271 21.0715C49.4353 21.0715 49.4436 21.0737 49.4513 21.0775C49.4595 21.0797 49.4655 21.0836 49.4716 21.0879C49.4677 21.1 49.4611 21.1121 49.4551 21.1248C49.4513 21.1248 49.4469 21.1248 49.4408 21.1226H49.443H49.4436ZM48.081 25.2354H48.0915C48.0915 25.2415 48.0876 25.2475 48.0832 25.2519V25.2338L48.081 25.236V25.2354ZM48.1827 24.7651L48.1684 24.769L48.1722 24.7569C48.1722 24.7569 48.1805 24.7607 48.1827 24.7651ZM48.2437 24.3783V24.358C48.2437 24.358 48.2541 24.3498 48.2618 24.358H48.264V24.3602V24.3564L48.2437 24.3745V24.3783ZM48.0398 25.5129L48.0338 25.4744C48.0338 25.4744 48.036 25.4706 48.0376 25.4684C48.0497 25.4865 48.0541 25.503 48.0541 25.5211C48.0503 25.5211 48.0459 25.5173 48.042 25.5151L48.0398 25.5129ZM48.3678 24.7146V24.7025C48.3821 24.7063 48.3942 24.7107 48.4002 24.7107V24.7311C48.3821 24.7695 48.3695 24.7552 48.3678 24.7311H48.4002L48.3656 24.7129L48.3678 24.7151V24.7146ZM48.0074 25.8024L48.0052 25.8046V25.8024C48.0052 25.7881 48.0014 25.776 47.9992 25.7639C48.003 25.7557 48.0052 25.7475 48.0096 25.7414V25.8024H48.0074ZM47.3311 30.5993C47.3492 30.6174 47.3492 30.6377 47.3393 30.6663L47.3311 30.5993L47.3168 30.6053C47.319 30.5932 47.3251 30.5872 47.3311 30.5993ZM76.5369 10.024C76.5001 10.124 76.4617 10.2257 76.421 10.3317C75.6777 12.3667 74.2701 15.245 72.6384 18.0723C72.7444 17.8014 72.8603 17.502 72.9845 17.18C74.0641 14.5138 75.3678 11.892 76.5369 10.024ZM68.7376 29.8779V29.9065C68.7376 29.9065 68.7315 29.8922 68.7315 29.8779C68.7315 29.8433 68.7315 29.8207 68.742 29.8229L68.7381 29.8757V29.8779H68.7376ZM68.8249 29.401V29.3642L68.8475 29.3417H68.8271C68.8293 29.3312 68.8354 29.3296 68.8475 29.3417V29.4109C68.8293 29.4477 68.8249 29.4395 68.8249 29.4109H68.8475L68.8249 29.4004V29.401ZM68.7376 29.9059L68.7579 29.8977V29.8999C68.7579 29.9037 68.7579 29.9059 68.7557 29.9103H68.7436L68.7414 29.9065H68.7376V29.9059ZM68.7052 30.0768C68.7052 30.0768 68.709 30.0806 68.709 30.085C68.7315 30.085 68.7315 30.1317 68.709 30.1542C68.709 30.1603 68.709 30.1647 68.7068 30.1707V30.085H68.6964C68.7002 30.079 68.7024 30.0768 68.7046 30.0768H68.7052ZM78.2582 8.0577H78.2786L78.256 8.03518V7.96376L78.2786 7.94123H78.2582C78.2604 7.92914 78.2665 7.92914 78.2786 7.94123V8.05715C78.2665 8.06924 78.2604 8.06759 78.2582 8.05715V8.0577ZM77.6632 7.28579C77.6632 7.28579 77.6693 7.29183 77.6715 7.29403C77.6693 7.29183 77.6654 7.29018 77.6632 7.28579ZM77.7061 7.23909L77.6511 7.26546L77.7061 7.23689V7.23909ZM77.533 26.2765C77.533 26.2359 77.527 26.1969 77.5127 26.1584V26.1463H77.5352V26.2749L77.533 26.2771V26.2765Z" fill="#202020"/>
<path d="M81.2446 19.6969C81.9006 19.6969 82.4137 19.2448 82.4137 18.6684C82.4137 18.0921 81.8901 17.6152 81.2446 17.6152C80.599 17.6152 80.0996 18.0877 80.0996 18.6684C80.0996 19.2492 80.6029 19.6969 81.2446 19.6969Z" fill="#202020"/>
<path d="M92.9371 19.0119C93.0673 18.8043 93.092 18.729 93.0245 18.5208L93.014 18.4982C92.9816 18.4351 92.9547 18.3884 92.914 18.3538C92.869 18.3169 92.8184 18.301 92.7635 18.3049C92.7597 18.3027 92.7553 18.301 92.7531 18.2988C92.7003 18.2702 92.6531 18.2746 92.6102 18.2884C92.6042 18.2862 92.5959 18.2845 92.5899 18.2823C92.5492 18.2719 92.5064 18.268 92.4514 18.2966V17.6406L92.1971 18.0664C92.185 18.0521 92.1729 18.0378 92.1603 18.028C92.1152 17.9933 92.0603 17.9769 92.0097 17.9851C91.924 17.9873 91.8713 18.0258 91.5801 18.5614C91.4438 18.812 91.1647 19.2784 90.9549 19.6026C90.906 19.6861 90.8631 19.7531 90.8285 19.8064C90.7043 19.2647 90.5741 19.0224 90.3132 18.8081C90.1258 18.6675 89.9852 18.59 89.8731 18.568C89.7874 18.5515 89.6226 18.4724 89.488 18.3829C89.1028 18.1323 88.9418 18.0307 88.6281 18.0307C87.6974 18.0307 86.025 19.4954 84.7394 21.4343C84.2565 22.1573 83.8269 22.9276 83.4478 23.7341C83.3846 23.7341 83.2725 23.7605 82.9061 24.2637C82.2968 25.0439 81.521 25.9015 81.1502 26.252C80.8387 26.5635 80.4761 26.7816 80.3233 26.8388C80.309 26.7635 80.2947 26.58 80.3414 26.1745C80.4557 24.7609 80.9282 22.8847 81.4436 21.8073C81.6858 21.2942 81.6941 21.1392 81.6271 21.0332C81.6128 21.0107 81.5946 20.9925 81.576 20.9783C81.576 20.8827 81.5721 20.7849 81.476 20.7316C81.4188 20.6992 81.3639 20.703 81.3128 20.7211C81.2639 20.6827 81.2128 20.6783 81.1623 20.6865C81.1518 20.6761 81.1381 20.6684 81.1238 20.6602C81.0161 20.603 80.9365 20.6684 80.865 20.7376C80.8612 20.7398 80.8568 20.7415 80.8529 20.7437C80.8755 20.5992 80.8634 20.4849 80.7958 20.4322C80.7508 20.3975 80.6777 20.3772 80.6002 20.414C80.5898 20.4162 80.5799 20.4201 80.5716 20.4245C80.525 20.3025 80.4513 20.1943 80.3354 20.1943C80.1541 20.1943 80.0645 20.3613 79.8305 20.9783C78.9976 23.1698 78.629 25.2312 78.869 26.3597C78.9729 26.8239 79.2113 27.2091 79.5289 27.4211L79.5717 27.4475C79.6613 27.5003 79.7981 27.5821 79.8448 27.6288L79.8712 27.6491C79.9525 27.7041 80.0607 27.7574 80.1382 27.7837C80.2156 27.8123 80.3052 27.8266 80.4008 27.8266C80.5964 27.8266 80.8205 27.7673 81.026 27.6557C81.3029 27.497 81.9468 26.8651 82.4781 26.246C82.0358 27.625 81.8996 28.5804 82.0605 29.1567C82.1929 29.6841 82.3704 29.8534 83.2478 30.2934C83.5593 30.4341 83.9626 30.4236 84.2702 30.2709C85.1158 29.8962 86.236 28.6414 88.3908 25.6553C86.8975 29.5968 85.8569 33.7052 85.2927 37.873C85.0933 39.2987 85.0806 39.8734 85.2399 40.136C85.3377 40.3316 85.4581 40.3212 85.5212 40.2992C85.5317 40.2954 85.5416 40.291 85.552 40.2849C85.5762 40.2849 85.5987 40.2789 85.619 40.2706C85.6251 40.2932 85.6333 40.3157 85.6432 40.3338C85.6981 40.4256 85.7861 40.4783 85.8756 40.4783C85.8959 40.4783 85.9163 40.4761 85.9366 40.4701C86.0344 40.4437 86.136 40.3437 86.1404 40.1421C86.1932 39.7328 86.825 36.877 87.1607 35.5386C88.9896 28.4298 90.5604 23.7874 92.4097 20.0174C92.6135 19.608 92.8679 19.1009 92.9289 19.0191L92.9371 19.007L92.9349 19.013L92.9371 19.0119ZM90.1406 20.3195V20.2954L90.1632 20.2728H90.1428C90.145 20.2624 90.1511 20.2607 90.1632 20.2728V20.3888C90.1511 20.4008 90.145 20.4008 90.1428 20.3888H90.1632L90.1406 20.3662V20.3195ZM83.2253 29.2474V29.115H83.2478V29.2474H83.2253ZM83.2275 28.6101H83.2478L83.2275 28.5996V28.5754C83.2275 28.5754 83.2396 28.5776 83.2478 28.5793V28.6079C83.2374 28.6304 83.2313 28.6342 83.2275 28.6304V28.6079V28.6101ZM83.6939 28.9765C83.7571 28.337 84.2356 26.6707 84.8466 25.2059C85.4108 23.8676 86.1684 22.4968 86.8755 21.5392C87.3194 20.9568 88.2688 20.0399 88.6232 19.8097C88.9347 19.6141 89.21 19.5103 89.322 19.4877C89.438 19.7014 89.6456 20.608 89.6456 21.2744V21.6678L88.9512 22.7413C87.8227 24.4318 87.0283 25.5647 86.0487 26.7113C85.4498 27.453 84.4801 28.4101 84.0873 28.6996C83.9488 28.787 83.7983 28.8974 83.6901 28.9787L83.6939 28.9765ZM80.7997 22.0166H80.8057L80.7568 22.1144L80.7464 22.104C80.7546 22.0798 80.7667 22.0551 80.7788 22.043C80.7848 22.0287 80.7931 22.0205 80.7991 22.0144V22.0166H80.7997ZM80.7348 22.1446H80.7409L80.737 22.1529H80.7348V22.1446ZM80.7409 22.1446H80.7348C80.7348 22.1446 80.7387 22.1282 80.7409 22.1183L80.7513 22.1221L80.7409 22.1425V22.1446ZM79.9646 25.685V25.5751H79.9871V25.6834H79.9646V25.6856V25.685ZM80.0887 24.7543H80.0805C80.0805 24.7093 80.0805 24.6889 80.0926 24.6911L80.0887 24.7543ZM80.0113 25.3554H79.9948C79.9909 25.3433 79.9887 25.3268 79.9887 25.3043C79.9887 25.2351 80.0129 25.2103 80.0129 25.2576C80.0354 25.2801 80.0354 25.3268 80.0129 25.3515V25.3576L80.0107 25.3554H80.0113ZM80.0541 25.0559V24.9686H80.0684C80.0744 24.9994 80.0744 25.0296 80.058 25.0461C80.058 25.0521 80.058 25.0543 80.0541 25.0543V25.0565V25.0559Z" fill="#202020"/>
<path d="M113.088 23.5807C112.987 23.5378 112.826 23.5928 112.748 23.6702L112.718 23.701C112.685 23.7175 112.652 23.7378 112.62 23.7603C112.642 23.6543 112.593 23.5955 112.56 23.5669C112.453 23.4796 112.338 23.5444 112.204 23.6219L112.186 23.634C112.096 23.701 111.652 23.9966 111.263 24.2575C110.381 24.8383 109.99 25.0904 109.205 25.5063C107.962 26.1502 106.806 26.637 106.032 26.8425C105.629 26.9321 105.476 26.9546 105.019 26.9546H104.506L104.376 26.8244C104.197 26.6249 104.093 26.3601 104.093 26.0992C104.093 25.7343 104.274 25.0948 104.59 24.3515L104.604 24.3191L104.641 24.3416C105.035 24.5372 105.491 24.6125 105.857 24.5432C106.741 24.4213 108.012 23.4922 108.878 22.3352C109.471 21.5528 109.972 20.5837 110.073 20.0293C110.183 19.4508 109.902 18.9113 109.403 18.7443L109.383 18.7382C109.275 18.7157 109.118 18.6525 109.045 18.5976C108.772 18.4245 108.558 18.3613 108.232 18.3613C107.536 18.3613 106.585 18.8728 105.558 19.8013C103.827 21.3699 102.645 23.2845 102.476 24.7982C102.458 24.9652 102.454 25.1284 102.458 25.2827C101.264 26.6293 100.331 27.5073 99.7956 27.7864C99.7917 27.7864 99.7873 27.7902 99.7835 27.7924C99.7549 27.4298 99.7406 26.4112 99.7813 25.9508C99.889 24.8833 100.115 23.7428 100.639 21.5957C100.924 20.4551 100.955 20.2716 100.895 20.0947C100.873 20.009 100.81 19.9458 100.718 19.9194C100.641 19.8969 100.547 19.9074 100.464 19.9398C100.452 19.9172 100.435 19.8991 100.415 19.8826C100.391 19.8623 100.362 19.8502 100.331 19.8442L100.166 19.4327L99.8219 19.9255C99.4225 20.5507 98.8583 21.6122 98.1375 23.0115C97.1738 24.869 96.7969 25.5333 96.2145 26.3947C95.6871 27.187 95.3404 27.615 94.8377 28.0913C94.524 28.405 94.1493 28.6451 93.9922 28.7187C93.9697 28.5803 93.9697 28.1726 94.19 26.9831C94.5548 25.0481 95.141 23.2554 96.0393 21.343C96.5162 20.343 96.6502 19.9821 96.5568 19.6706L96.5425 19.6338C96.514 19.5607 96.4815 19.475 96.3777 19.4546C96.3612 19.4508 96.3469 19.4508 96.3327 19.4508C96.3222 19.4426 96.3101 19.4365 96.2958 19.4305C96.2288 19.3981 96.1492 19.3959 96.0678 19.42L96.2228 18.4954L95.8294 19.1492C95.8151 19.1349 95.7986 19.125 95.7783 19.1146C95.6459 19.0514 95.5217 19.1514 95.491 19.1755C95.1734 19.3876 94.5949 20.2656 94.0834 21.3122C93.0648 23.3247 92.4824 25.5245 92.4824 27.3496C92.4824 28.2863 92.6291 28.8429 92.9736 29.2154C93.1428 29.3846 93.7559 29.7203 93.9675 29.7901C94.0449 29.8164 94.1262 29.8307 94.2158 29.8307C94.5663 29.8307 94.9982 29.6186 95.3992 29.2379C95.953 28.6841 96.3464 28.1276 98.0556 25.2701C98.2391 24.9602 98.4122 24.6712 98.5588 24.4246C98.0413 27.1194 98.194 28.1666 99.1637 28.688C99.2165 28.7143 99.278 28.7489 99.339 28.7835C99.4368 28.8385 99.5307 28.8896 99.6077 28.922C100.333 29.317 101.176 28.7814 102.515 27.0804C102.627 26.9359 102.743 26.7848 102.859 26.6321C103.069 26.954 103.36 27.2392 103.733 27.4897C104.232 27.8215 104.458 27.9237 104.859 28.0501C105.03 28.0885 105.226 28.1094 105.442 28.1094C105.933 28.1094 106.521 28.0094 107.135 27.816C107.794 27.6122 109.092 26.9502 109.964 26.4266C111.005 25.8217 112.266 24.8784 112.799 24.3674C112.918 24.2328 113.191 23.9032 113.191 23.7439L113.185 23.6257L113.081 23.5829L113.089 23.5807H113.088ZM106.366 27.2128V27.2639C106.35 27.2699 106.334 27.2721 106.315 27.276C106.312 27.2617 106.307 27.2474 106.301 27.2331C106.319 27.2271 106.342 27.221 106.366 27.2128ZM103.674 25.8684C103.672 25.8541 103.67 25.836 103.67 25.8135C103.67 25.7827 103.672 25.7585 103.676 25.7404H103.692V25.8668H103.672L103.674 25.869L103.674 25.8684ZM107.442 21.827C106.742 22.5055 105.664 23.2285 105.169 23.4219C105.124 23.44 105.079 23.4543 105.039 23.467C105.187 23.1999 105.452 22.7582 105.649 22.4604C106.725 20.8227 108.188 19.5843 108.856 19.4904C108.821 20.1057 108.239 21.0748 107.442 21.827ZM93.9048 25.7624C93.9048 25.7624 93.9109 25.7585 93.9131 25.7624H93.9048ZM94.1515 24.9047C94.1515 24.9047 94.1372 24.8987 94.1312 24.8987L94.1455 24.8844H94.1251C94.1273 24.874 94.1334 24.8723 94.1455 24.8844C94.1455 24.8905 94.1477 24.8987 94.1493 24.9069L94.1515 24.9047ZM94.0988 25.1531C94.0949 25.1674 94.0883 25.1652 94.0823 25.1492C94.0861 25.1492 94.0927 25.1514 94.0988 25.1531ZM93.7526 26.7238C93.7301 26.7705 93.7301 26.7464 93.7301 26.7013C93.7301 26.6563 93.7301 26.6321 93.7526 26.6546C93.7752 26.6546 93.7752 26.7013 93.7526 26.7238ZM94.007 25.4569V25.3734H93.9966C94.0026 25.3629 94.0087 25.3613 94.0087 25.3734C94.0312 25.3734 94.0312 25.4201 94.0087 25.4426C94.0087 25.4487 94.0087 25.4531 94.0065 25.4547V25.4569H94.007ZM99.4148 25.8157H99.4351L99.4126 25.7931V25.7217L99.4351 25.6992H99.4148C99.417 25.6887 99.4231 25.6871 99.4351 25.6992V25.8151C99.4231 25.8272 99.417 25.8272 99.4148 25.8151V25.8157ZM99.3681 26.2393V26.1882C99.3681 26.1717 99.3681 26.1596 99.3703 26.1475H99.4049C99.4088 26.1761 99.4088 26.2068 99.4049 26.2349C99.3928 26.2349 99.3824 26.2387 99.3703 26.2387H99.3681V26.2393Z" fill="#202020"/>
<path d="M173.527 17.0629C173.615 16.9756 173.617 16.8289 173.576 16.7289C173.564 16.7025 173.55 16.6778 173.533 16.6575C173.525 16.5883 173.493 16.5273 173.478 16.5048C173.527 16.3888 173.448 16.3009 173.436 16.2888C173.118 16.0059 170.808 15.6169 170.781 15.6125C170.62 15.59 170.472 15.5658 170.362 15.5493C170.396 15.4554 170.447 15.3274 170.496 15.2115L170.541 15.1016C170.993 14.0566 171.826 12.02 171.923 11.7019C172.016 11.3513 172.061 11.1437 171.914 10.9255C171.819 10.8052 171.713 10.7767 171.641 10.7728C171.572 10.769 171.501 10.7893 171.437 10.8277C171.407 10.8014 171.378 10.7893 171.35 10.7849C171.346 10.7789 171.34 10.7728 171.336 10.7668L171.077 10.5058L170.775 10.8437C170.34 11.3063 168.801 14.1555 168.28 15.3312L168.256 15.3801L166.541 15.4026C165.86 15.4191 165.259 15.423 164.949 15.4252C164.988 15.3213 165.039 15.1911 165.086 15.0664C165.124 14.9664 165.167 14.8587 165.208 14.7467C165.729 13.4204 165.872 12.9666 165.872 12.6364C165.872 12.5815 165.868 12.3166 165.788 12.1699L165.619 11.6628L165.463 11.9766C165.438 11.9661 165.412 11.9601 165.383 11.9584C165.299 11.9381 165.22 11.9502 165.157 11.993C165.151 11.8832 165.114 11.7711 164.992 11.7508C164.965 11.7469 164.941 11.7469 164.919 11.7508C164.904 11.7304 164.886 11.7139 164.87 11.7041C164.859 11.6755 164.843 11.6491 164.825 11.631C164.782 11.5903 164.71 11.5596 164.623 11.5859C164.48 11.5942 164.446 11.692 164.053 12.8446C163.882 13.3984 163.2 15.2197 163.046 15.5719C162.918 15.5982 162.584 15.6471 162.168 15.6861C159.082 16.0367 158.657 16.2339 158.536 16.4031C158.477 16.4784 158.473 16.5927 158.504 16.68C158.51 16.7553 158.536 16.8042 158.571 16.8388C158.545 16.8816 158.526 16.9283 158.518 16.975C158.498 17.0811 158.526 17.1805 158.598 17.2519C158.651 17.3047 159.108 17.2772 159.971 17.1684L160.232 17.136C161.435 16.9652 162.216 16.863 162.56 16.8327C162.528 16.9201 162.485 17.0382 162.428 17.1849C161.283 20.0122 160.503 22.385 159.983 24.6607C158.531 26.3572 157.395 27.4676 156.779 27.7851C156.775 27.7851 156.771 27.789 156.767 27.7912C156.739 27.4286 156.724 26.41 156.765 25.9496C156.873 24.8821 157.099 23.7415 157.623 21.5944C157.908 20.4539 157.939 20.2704 157.879 20.0935C157.857 20.0078 157.793 19.9446 157.702 19.9182C157.624 19.8957 157.531 19.9061 157.447 19.9385C157.435 19.916 157.419 19.8979 157.398 19.8814C157.374 19.8611 157.346 19.849 157.315 19.8429L157.15 19.4314L156.806 19.9243C156.406 20.5495 155.842 21.6109 155.121 23.0103C154.158 24.8678 153.781 25.532 153.198 26.3935C152.671 27.1857 152.324 27.6137 151.821 28.0901C151.508 28.4038 151.133 28.6439 150.976 28.7175C150.953 28.579 150.953 28.1714 151.174 26.9819C151.538 25.0469 152.125 23.2542 153.023 21.3417C153.5 20.3418 153.634 19.9808 153.541 19.6693L153.526 19.6325C153.498 19.5594 153.465 19.4737 153.361 19.4534C153.345 19.4496 153.331 19.4496 153.316 19.4496C153.306 19.4413 153.294 19.4353 153.28 19.4292C153.213 19.3968 153.133 19.3946 153.052 19.4188L153.206 18.4941L152.813 19.1479C152.799 19.1337 152.782 19.1238 152.762 19.1133C152.63 19.0501 152.505 19.1501 152.475 19.1743C152.157 19.3864 151.579 20.2643 151.067 21.311C150.751 21.9362 150.476 22.5801 150.248 23.2234C150.177 23.2295 150.092 23.2438 149.984 23.2619L149.914 23.274C149.505 23.3883 148.466 23.5245 148.106 23.547L148.016 23.5553L148.033 23.1559C148.033 21.9417 147.764 21.3879 146.937 20.8764C146.723 20.7236 146.586 20.628 146.497 20.5973L146.46 20.589C146.437 20.5852 146.405 20.5709 146.368 20.5566C146.339 20.5445 146.309 20.5341 146.281 20.5242C146.378 20.4099 146.401 20.3083 146.378 20.1165C146.378 19.988 146.352 19.866 146.352 19.8622L146.326 19.7276H146.181C146.175 19.7215 146.171 19.7155 146.165 19.7111C146.126 19.6787 146.065 19.6501 145.973 19.6803C145.924 19.6479 145.859 19.6375 145.78 19.6479C145.792 19.5259 145.759 19.4358 145.686 19.3809C145.653 19.3567 145.59 19.3238 145.498 19.3441C145.455 19.2441 145.384 19.1304 145.252 19.1177C145.046 19.0974 144.889 19.3133 144.555 19.9286C144.398 20.1973 144.276 20.3643 144.237 20.4055L144.219 20.4198C144.174 20.444 144.018 20.5116 143.906 20.5605C143.109 20.9456 142.767 21.695 143.054 22.4262L143.123 22.6015L142.944 23.1168C142.5 22.913 141.596 22.779 140.642 22.779C140.498 22.7828 140.149 22.7954 140.006 22.779C140.094 21.2126 139.664 20.0374 138.733 19.2792C136.937 17.8206 133.709 18.2793 131.576 18.8106C132.221 18.2222 132.904 17.6211 133.619 16.9937C137.626 13.472 142.166 9.47951 142.515 5.3304V5.29799L142.506 5.26557C142.386 4.88648 142.225 4.53047 142.001 4.14533L142.393 4.41234L141.849 3.82558C141.791 3.72394 141.72 3.62779 141.641 3.54044L141.272 2.9251L141.39 3.32013C141.39 3.32013 141.372 3.30804 141.364 3.302C139.732 1.56038 136.846 1.35875 133.235 2.73776C127.81 4.80737 121.443 10.3926 121.364 14.4868V14.5132L121.37 14.5373C121.479 14.9098 121.618 15.2158 121.785 15.4537L121.82 16.4048L121.944 15.6532C122.121 15.8449 122.324 15.9707 122.553 16.0339C123.667 16.3372 125.05 15.0378 126.163 13.9951C126.326 13.8423 126.48 13.6956 126.625 13.5654L126.727 13.4737L126.655 13.3556C126.619 13.2924 126.555 13.2517 126.482 13.2413C126.313 13.2171 126.081 13.3594 125.68 13.7055C125.669 13.6731 125.651 13.6446 125.633 13.6281C125.513 13.5138 125.403 13.6055 125.203 13.7726C125.126 13.8379 125.057 13.8945 125.036 13.9621C125.01 13.966 124.981 13.9764 124.951 13.9967C124.873 14.0495 124.678 14.2412 124.364 14.5571C123.973 14.9664 123.932 15.0093 124.058 15.1318C124.069 15.1422 124.079 15.1499 124.087 15.1582C123.891 15.3252 123.726 15.4471 123.645 15.468C123.239 15.59 122.871 15.523 122.659 15.2889C122.433 15.0384 122.417 14.6373 122.616 14.1522C124.18 10.0416 129.568 5.34249 134.377 3.89206C137.864 2.99982 140.142 2.88555 141.144 3.55582C141.311 3.72504 141.48 3.9426 141.655 4.21785C142.073 5.71883 139.965 8.81748 135.713 12.9419C132.403 16.1559 128.78 19.0161 127.266 19.949C127.792 17.5777 128.692 15.1318 129.644 12.549C130.273 10.8398 130.923 9.07185 131.491 7.24673L131.52 7.15717L131.459 7.08575C131.335 6.94126 131.141 6.96158 131.001 6.97367C130.992 6.97367 130.982 6.97367 130.974 6.97587C130.985 6.86983 130.974 6.79676 130.891 6.74787C130.856 6.72534 130.822 6.7193 130.791 6.72149C130.754 6.63194 130.679 6.50338 130.522 6.54239L130.467 6.55667L130.433 6.59953C129.612 7.61373 127.764 10.0646 128.353 10.8997L128.449 11.0343C126.322 16.363 123.792 22.8586 124.014 27.9533C123.955 28.2851 123.927 28.4686 124.059 28.5318C124.059 28.5521 124.062 28.5724 124.063 28.5911C124.067 28.6807 124.074 28.7664 124.08 28.8521C122.008 30.7569 120.181 33.3578 121.018 34.6225L121.037 34.6467L121.11 34.7197L121.185 35.2109L121.228 34.8318C121.979 35.518 122.972 35.8625 124.159 35.8625C124.849 35.8625 125.607 35.7444 126.424 35.5103C132.18 33.844 139.051 27.0731 139.868 23.3641C140.113 23.3047 141.076 23.3844 141.665 23.4355C142.29 23.4882 142.628 23.513 142.819 23.5047C142.502 24.5437 142.347 25.6414 142.347 26.8495C142.347 27.8862 142.427 28.2142 142.669 28.6746C142.881 29.0718 143.427 29.5548 143.907 29.7707C144.017 29.8256 144.146 29.852 144.288 29.852C144.5 29.852 144.74 29.7927 144.991 29.6745C146.082 29.1043 147.333 26.9632 147.777 24.9123L147.865 24.5821L147.991 24.57C148.643 24.4684 149.366 24.3376 149.952 24.1832C149.642 25.2853 149.475 26.3649 149.475 27.3385C149.475 28.312 149.622 28.8318 149.967 29.2043C150.136 29.3735 150.749 29.7092 150.961 29.7789C151.038 29.8053 151.119 29.8196 151.209 29.8196C151.559 29.8196 151.991 29.6075 152.392 29.2268C152.946 28.673 153.339 28.1164 155.049 25.259C155.232 24.9491 155.405 24.6601 155.552 24.4134C155.034 27.1083 155.187 28.1554 156.157 28.6768C156.21 28.7032 156.271 28.7378 156.332 28.7724C156.43 28.8274 156.524 28.8785 156.601 28.9109C157.326 29.3059 158.169 28.7702 159.508 27.0693C159.516 27.0588 159.522 27.0511 159.53 27.0407C159.499 27.2423 159.469 27.444 159.443 27.6456C159.347 28.5093 159.349 29.9657 159.447 30.3855C159.732 31.4304 160.272 31.7381 160.662 31.8073C160.762 31.8315 160.905 31.8744 160.978 31.9112L161.013 31.9233C161.225 31.976 161.321 31.976 161.557 31.9233C161.926 31.8376 162.231 31.6343 162.571 31.2469C162.991 30.8047 163.683 29.7498 164.337 28.5664C164.337 28.5746 164.335 28.5829 164.333 28.5906C163.958 30.9574 163.84 33.1369 164.034 34.1516C164.178 34.7565 164.325 34.9972 164.854 35.1373C164.96 35.1637 165.068 35.1884 165.162 35.1884C165.264 35.1884 165.349 35.1598 165.402 35.0801C165.5 34.9274 165.364 34.756 165.301 34.6791C165.215 34.5774 165.203 34.561 165.203 34.0637C165.179 33.0655 165.304 31.9639 165.665 29.9981C165.918 28.5461 166.016 28.0774 166.38 26.3298L166.502 25.7452L166.557 25.5112C166.702 24.8799 166.946 23.8206 167.132 23.1383C167.266 22.5559 167.382 22.2971 167.873 21.2055L167.89 21.1687C168.487 19.8589 169.479 17.5794 169.756 16.9234L169.853 16.6789H170.018C170.735 16.6789 172.788 16.9294 173.145 17.0393C173.324 17.1267 173.456 17.1289 173.536 17.0498L173.528 17.0619L173.527 17.0629ZM160.578 29.7674V29.7328H160.603V29.7674H160.578ZM169.543 16.0119C169.566 16.0119 169.59 16.0119 169.59 16.0586C169.59 16.0812 169.567 16.0812 169.543 16.0812C169.519 16.0812 169.496 16.0812 169.496 16.0586C169.496 16.0119 169.519 16.0119 169.543 16.0119ZM168.634 16.0119C168.634 15.9894 168.634 15.9652 168.657 15.9652C168.679 15.9652 168.704 15.9878 168.704 16.0119C168.704 16.0361 168.704 16.0586 168.657 16.0586C168.634 16.0586 168.634 16.0361 168.634 16.0119ZM163.856 18.2118L163.894 18.1057C164.239 17.175 164.395 16.7492 164.444 16.7003C164.452 16.6981 164.458 16.6965 164.468 16.6943L164.505 16.6861C164.623 16.6635 165.748 16.635 166.287 16.6207C166.656 16.6146 166.941 16.6102 167.157 16.6102C167.426 16.6102 167.595 16.6141 167.699 16.6185C167.662 16.7245 167.605 16.8794 167.526 17.0624C166.717 19.026 165.994 21.2505 165.375 23.6761C165.081 24.8942 165.018 25.0551 164.413 26.1265C163.248 28.251 162.295 29.7031 161.576 30.4448C161.406 30.614 161.196 30.8239 161.095 30.8849C161.083 30.775 161.071 30.5651 161.071 30.213C161.071 27.8274 162.268 22.6663 163.855 18.2096V18.2118H163.856ZM163.721 16.1037C163.721 16.1037 163.717 16.118 163.711 16.1262H163.698H163.605L163.651 16.1729C163.62 16.1729 163.605 16.1575 163.605 16.1262C163.627 16.1037 163.651 16.057 163.698 16.057C163.721 16.057 163.745 16.057 163.721 16.1037ZM159.794 16.5701L159.832 16.5537H159.843V16.5701C159.828 16.5701 159.814 16.5723 159.796 16.5723L159.794 16.5701ZM160.159 16.5234C160.136 16.5234 160.118 16.5212 160.102 16.5174C160.144 16.5113 160.187 16.5053 160.232 16.5009H160.236V16.5234H160.158H160.159ZM165.259 12.6573C165.259 12.704 165.237 12.6798 165.237 12.6347C165.237 12.5897 165.237 12.5716 165.255 12.5858V12.5897C165.255 12.604 165.255 12.6303 165.261 12.6589L165.259 12.6567L165.259 12.6573ZM150.883 25.7628C150.883 25.7628 150.889 25.7589 150.891 25.7628H150.883ZM151.129 24.9052C151.129 24.9052 151.115 24.8991 151.109 24.8991L151.123 24.8848H151.103C151.105 24.8744 151.111 24.8727 151.123 24.8848C151.123 24.8909 151.125 24.8991 151.127 24.9074L151.129 24.9052ZM151.076 25.1535C151.073 25.1678 151.066 25.1656 151.06 25.1496C151.064 25.1496 151.07 25.1518 151.076 25.1535ZM150.73 26.7242C150.708 26.7709 150.708 26.7468 150.708 26.7017C150.708 26.6567 150.708 26.6325 150.73 26.655C150.753 26.655 150.753 26.7017 150.73 26.7242ZM150.985 25.4573V25.3738H150.974C150.98 25.3634 150.986 25.3617 150.986 25.3738C151.009 25.3738 151.009 25.4205 150.986 25.443C150.986 25.4491 150.986 25.4535 150.984 25.4551V25.4573H150.985ZM156.392 25.8161H156.413L156.39 25.7935V25.7221L156.413 25.6996H156.392C156.395 25.6892 156.401 25.6875 156.413 25.6996V25.8155C156.401 25.8276 156.395 25.8276 156.392 25.8155V25.8161ZM156.346 26.2397V26.1886C156.346 26.1721 156.346 26.16 156.348 26.1479H156.383C156.386 26.1765 156.386 26.2073 156.383 26.2353C156.371 26.2353 156.36 26.2391 156.348 26.2391H156.346V26.2397ZM148.952 23.836H148.915L148.893 23.8135V23.8338C148.882 23.8316 148.88 23.8256 148.893 23.8135H148.962C148.999 23.8316 148.99 23.836 148.962 23.836V23.8135L148.951 23.836H148.952ZM149.864 23.6525C149.864 23.6525 149.864 23.6564 149.862 23.6586C149.862 23.6564 149.862 23.6547 149.86 23.6525H149.864H149.864ZM144.898 21.795C144.898 21.795 144.91 21.801 144.91 21.8115C144.91 21.8153 144.907 21.8257 144.904 21.8318L144.864 21.8115L144.898 21.8483C144.89 21.8686 144.878 21.8911 144.864 21.9054C144.847 21.94 144.829 21.9483 144.823 21.9422C144.823 21.9422 144.819 21.9362 144.819 21.9301C144.819 21.9076 144.842 21.8609 144.866 21.8142C144.878 21.8021 144.888 21.7977 144.897 21.7977H144.899V21.7955L144.898 21.795ZM144.623 24.0948L144.837 24.1948C145.376 24.4634 145.868 24.5838 146.527 24.6085L146.876 24.6392C146.788 24.9041 146.542 25.5353 146.371 25.9023C145.807 27.0083 144.819 28.1532 144.167 28.4587L144.156 28.4626C144.105 28.4911 144.067 28.5093 144.038 28.5235C143.914 27.7412 144.164 25.837 144.625 24.0953H144.623L144.623 24.0948ZM143.653 26.4902V26.4309L143.676 26.4204H143.656V26.4166H143.674L143.676 26.4188V26.5594L143.672 26.5677H143.656V26.5594H143.678L143.656 26.549V26.4896H143.653V26.4902ZM143.625 26.9138L143.629 26.9017V26.9138H143.625ZM147.055 23.63C146.953 23.6421 146.603 23.6217 146.208 23.5992C145.727 23.5503 145.232 23.4564 144.908 23.3487L144.871 23.3383C144.871 23.3383 144.859 23.3361 144.855 23.3344C144.878 23.2427 144.949 23.0553 145.036 22.8273L145.093 22.6784C145.295 22.0961 145.542 21.5439 145.749 21.2038L145.833 21.0797L145.935 21.0917C146.627 21.1956 146.925 21.5153 147.075 22.3059C147.161 22.7905 147.116 23.463 147.057 23.6322L147.055 23.63ZM132.464 16.4355C132.464 16.4355 132.47 16.4476 132.475 16.4537L132.408 16.5207L132.404 16.5168C132.404 16.5168 132.416 16.4943 132.428 16.4784C132.438 16.4603 132.451 16.4476 132.465 16.4377V16.4355H132.464ZM124.207 35.1752L124.229 35.1977C124.209 35.1977 124.191 35.1917 124.207 35.1752C124.211 35.1713 124.217 35.1713 124.227 35.1692L124.207 35.1752ZM137.758 23.2531H137.72C137.72 23.2493 137.724 23.2449 137.724 23.2388C137.726 23.2366 137.73 23.2328 137.732 23.2284C137.752 23.2388 137.779 23.2465 137.809 23.2509H137.758V23.2531ZM136.937 23.3773H136.941L136.95 23.3877C136.95 23.3877 136.937 23.3839 136.935 23.3795V23.3756L136.937 23.3778V23.3773ZM136.502 23.4877H136.496C136.494 23.4756 136.49 23.4635 136.484 23.4492H136.498L136.514 23.486H136.5L136.502 23.4882L136.502 23.4877ZM136.282 23.5102H136.223L136.266 23.5327C136.239 23.5327 136.223 23.5289 136.223 23.5102C136.231 23.4937 136.257 23.4921 136.282 23.4959V23.5102ZM135.854 23.6185C135.838 23.6124 135.826 23.6042 135.826 23.6042L135.854 23.6185ZM138.649 22.7932C138.618 22.8075 138.596 22.8257 138.577 22.8482C138.223 22.7872 138.168 22.8317 138.129 22.8768C137.942 22.8603 137.726 22.8526 137.325 22.9257C133.233 23.3267 128.757 25.7304 125.252 27.8489C125.464 26.7528 126.38 23.1619 126.59 22.6504C126.694 22.5993 126.9 22.4691 127.301 22.2125C129.456 20.9066 136.082 18.2101 138.227 19.8781C138.92 20.416 139.062 21.3978 138.653 22.7949L138.649 22.7927V22.7932ZM122.103 34.6093C121.771 34.1346 122.034 33.1385 122.761 32.1282C125.613 27.9912 133.563 23.736 138.417 23.6992C137.498 25.8441 135.262 28.2763 132.086 30.5778C129.234 32.6452 125.982 34.2934 123.788 34.7818C122.935 35.0241 122.352 34.9631 122.104 34.6088L122.103 34.6093ZM134.428 2.99598C134.428 2.98169 134.446 2.97565 134.467 2.97785L134.471 2.99818H134.428V3.01026C134.417 3.00422 134.416 2.99818 134.428 2.99818V2.99598H134.428ZM134.475 2.99598V2.97565C134.501 2.97565 134.528 2.98609 134.526 2.99818H134.475V2.99598Z" fill="#202020"/>
<path d="M172.573 17.6152C171.941 17.6152 171.428 18.0877 171.428 18.6684C171.428 19.2492 171.931 19.6969 172.573 19.6969C173.214 19.6969 173.742 19.2448 173.742 18.6684C173.742 18.0921 173.218 17.6152 172.573 17.6152Z" fill="#202020"/>
<path d="M184.265 19.0119C184.396 18.8043 184.422 18.729 184.353 18.5208L184.344 18.4982C184.312 18.4351 184.285 18.3884 184.244 18.3538C184.199 18.3169 184.15 18.301 184.094 18.3049C184.09 18.3027 184.086 18.301 184.083 18.2988C184.031 18.2702 183.983 18.2746 183.941 18.2884C183.935 18.2862 183.926 18.2845 183.92 18.2823C183.88 18.2719 183.837 18.268 183.782 18.2966V17.6406L183.527 18.0664C183.515 18.0521 183.503 18.0378 183.491 18.028C183.446 17.9933 183.391 17.9769 183.34 17.9851C183.254 17.9873 183.202 18.0258 182.91 18.5614C182.774 18.812 182.495 19.2784 182.285 19.6026C182.236 19.6861 182.194 19.7531 182.159 19.8064C182.035 19.2647 181.905 19.0224 181.644 18.8081C181.452 18.6653 181.318 18.59 181.203 18.568C181.118 18.5515 180.953 18.4724 180.818 18.3829C180.433 18.1323 180.272 18.0307 179.959 18.0307C179.028 18.0307 177.355 19.4954 176.07 21.4343C175.587 22.1573 175.157 22.9276 174.778 23.7341C174.715 23.7341 174.603 23.7605 174.236 24.2637C173.627 25.0439 172.854 25.9015 172.481 26.252C172.183 26.5492 171.812 26.7816 171.654 26.8404C171.639 26.7651 171.625 26.586 171.672 26.1745C171.786 24.7609 172.26 22.8847 172.774 21.8073C173.016 21.2942 173.024 21.1392 172.959 21.0332C172.945 21.0107 172.927 20.9925 172.908 20.9783C172.908 20.8827 172.904 20.7849 172.808 20.7316C172.751 20.6992 172.696 20.703 172.645 20.7211C172.596 20.6827 172.545 20.6783 172.494 20.6865C172.484 20.6761 172.47 20.6684 172.456 20.6602C172.348 20.603 172.268 20.6684 172.197 20.7376C172.193 20.7398 172.189 20.7415 172.185 20.7437C172.208 20.5992 172.195 20.4849 172.128 20.4322C172.083 20.3975 172.01 20.375 171.932 20.414C171.922 20.4162 171.914 20.4201 171.904 20.4245C171.859 20.3025 171.783 20.1943 171.667 20.1943C171.486 20.1943 171.392 20.3717 171.163 20.9783C170.33 23.1682 169.961 25.2312 170.201 26.3597C170.305 26.8239 170.543 27.2091 170.861 27.4211L170.906 27.4475C170.996 27.5003 171.132 27.5821 171.179 27.6288L171.205 27.6491C171.287 27.7041 171.395 27.7574 171.472 27.7837C171.55 27.8123 171.639 27.8266 171.735 27.8266C171.931 27.8266 172.155 27.7673 172.36 27.6557C172.637 27.497 173.281 26.8651 173.812 26.246C173.37 27.625 173.234 28.5804 173.395 29.1567C173.527 29.6841 173.705 29.8534 174.582 30.2934C174.894 30.4341 175.297 30.4236 175.604 30.2709C176.45 29.8962 177.57 28.6414 179.725 25.6553C178.232 29.5968 177.191 33.7052 176.629 37.873C176.43 39.2987 176.417 39.8734 176.576 40.136C176.674 40.3316 176.794 40.3212 176.858 40.2992C176.868 40.2954 176.878 40.291 176.888 40.2849C176.913 40.2849 176.935 40.2789 176.955 40.2706C176.962 40.2932 176.97 40.3157 176.98 40.3338C177.035 40.4256 177.122 40.4783 177.212 40.4783C177.232 40.4783 177.253 40.4761 177.273 40.4701C177.371 40.4437 177.472 40.3437 177.477 40.1421C177.53 39.7344 178.161 36.8792 178.497 35.5386C180.326 28.4298 181.897 23.7874 183.746 20.0174C183.95 19.608 184.204 19.0987 184.265 19.0191L184.274 19.007L184.263 19.013L184.265 19.0119ZM181.469 20.3195V20.2954L181.491 20.2728H181.471C181.473 20.2624 181.479 20.2607 181.491 20.2728V20.3888C181.479 20.4008 181.473 20.4008 181.471 20.3888H181.491L181.469 20.3662V20.3195ZM174.553 29.2474V29.115H174.576V29.2474H174.553ZM174.556 28.6101H174.576L174.556 28.5996V28.5754C174.556 28.5754 174.568 28.5776 174.576 28.5793V28.6079C174.566 28.6304 174.56 28.6342 174.556 28.6304V28.6079V28.6101ZM175.022 28.9765C175.085 28.337 175.564 26.6685 176.175 25.2059C176.739 23.8676 177.497 22.4968 178.204 21.5392C178.648 20.9568 179.597 20.0399 179.951 19.8097C180.263 19.6141 180.538 19.5103 180.65 19.4877C180.766 19.7014 180.974 20.608 180.974 21.2744V21.6678L180.28 22.7413C179.154 24.4318 178.357 25.5647 177.377 26.7113C176.779 27.453 175.809 28.4101 175.416 28.6996C175.278 28.787 175.129 28.8974 175.019 28.9787L175.023 28.9765H175.022ZM172.129 22.0166H172.136L172.087 22.1144L172.076 22.104C172.084 22.0798 172.097 22.0551 172.109 22.043C172.115 22.0287 172.123 22.0205 172.129 22.0144V22.0166H172.129ZM172.065 22.1446H172.069L172.065 22.1529H172.062V22.1468L172.065 22.1446ZM172.071 22.1446H172.065C172.065 22.1446 172.069 22.1282 172.071 22.1183L172.081 22.1221L172.071 22.1425V22.1446ZM171.294 25.685V25.5751H171.317V25.6834H171.294V25.6856V25.685ZM171.419 24.7543H171.41C171.41 24.7093 171.41 24.6889 171.422 24.6911L171.419 24.7543ZM171.341 25.3554H171.325C171.321 25.3433 171.319 25.3268 171.319 25.3043C171.319 25.2351 171.341 25.2103 171.341 25.2576C171.364 25.2801 171.364 25.3268 171.341 25.3515V25.3576V25.3554ZM171.384 25.0559V24.9686H171.398C171.404 24.9994 171.404 25.0296 171.388 25.0461C171.388 25.0521 171.388 25.0543 171.384 25.0543V25.0565V25.0559Z" fill="#202020"/>
<path d="M204.52 23.6235L204.417 23.5807C204.315 23.5378 204.154 23.5928 204.076 23.6702L204.046 23.701C204.013 23.7175 203.98 23.7378 203.948 23.7603C203.97 23.6543 203.922 23.5955 203.889 23.5669C203.78 23.4796 203.667 23.5444 203.532 23.6219L203.514 23.634C203.424 23.701 202.98 23.9966 202.591 24.2575C201.709 24.8383 201.318 25.0904 200.533 25.5063C199.291 26.1502 198.134 26.637 197.36 26.8425C196.957 26.9321 196.804 26.9546 196.347 26.9546H195.834L195.704 26.8244C195.525 26.6249 195.421 26.3601 195.421 26.0992C195.421 25.7343 195.602 25.0948 195.918 24.3515L195.933 24.3191L195.969 24.3416C196.363 24.5372 196.819 24.6125 197.185 24.5432C198.069 24.4213 199.341 23.4922 200.206 22.3352C200.799 21.5528 201.3 20.5837 201.401 20.0293C201.511 19.4508 201.231 18.9113 200.731 18.7443L200.711 18.7382C200.603 18.7157 200.446 18.6525 200.373 18.5976C200.1 18.4245 199.886 18.3613 199.56 18.3613C198.864 18.3613 197.913 18.8728 196.886 19.8013C195.155 21.3699 193.973 23.2845 193.804 24.7982C193.786 24.9652 193.782 25.1262 193.786 25.2827C192.592 26.6293 191.659 27.5073 191.124 27.7864C191.12 27.7864 191.115 27.7902 191.112 27.7924C191.083 27.4298 191.069 26.4134 191.109 25.9508C191.218 24.8833 191.443 23.7428 191.967 21.5957C192.252 20.4551 192.283 20.2716 192.224 20.0947C192.201 20.009 192.138 19.9458 192.046 19.9194C191.969 19.8969 191.875 19.9074 191.792 19.9398C191.78 19.9172 191.763 19.8991 191.743 19.8826C191.719 19.8623 191.69 19.8502 191.659 19.8442L191.495 19.4349L191.15 19.9277C190.751 20.5529 190.186 21.6144 189.466 23.0137C188.502 24.8712 188.125 25.5355 187.543 26.3969C187.015 27.1892 186.669 27.6172 186.166 28.0935C185.852 28.4072 185.477 28.6473 185.32 28.7209C185.298 28.5825 185.298 28.1748 185.518 26.9853C185.883 25.0503 186.469 23.2576 187.367 21.3451C187.844 20.3452 187.978 19.9843 187.885 19.675L187.871 19.6381C187.842 19.5651 187.81 19.4794 187.706 19.459C187.689 19.4552 187.675 19.4552 187.661 19.4552C187.65 19.447 187.638 19.4409 187.624 19.4349C187.557 19.4025 187.477 19.4003 187.396 19.4244L187.551 18.4976L187.158 19.1536C187.143 19.1415 187.127 19.1294 187.106 19.119C186.974 19.0558 186.85 19.1558 186.819 19.1799C186.502 19.392 185.923 20.27 185.412 21.3166C184.393 23.3291 183.811 25.5289 183.811 27.354C183.811 28.2907 183.957 28.8473 184.302 29.2198C184.471 29.389 185.084 29.7247 185.296 29.7945C185.373 29.8208 185.454 29.8351 185.544 29.8351C185.894 29.8351 186.326 29.623 186.727 29.2423C187.281 28.6885 187.675 28.132 189.385 25.2745C189.569 24.9646 189.742 24.6756 189.889 24.429C189.371 27.1238 189.524 28.171 190.494 28.6923C190.546 28.7187 190.608 28.7533 190.669 28.7879C190.767 28.8429 190.861 28.8962 190.937 28.9264C191.663 29.3214 192.506 28.7857 193.844 27.0848C193.956 26.9403 194.072 26.7892 194.189 26.6365C194.399 26.9584 194.69 27.2436 195.063 27.4941C195.562 27.8259 195.788 27.9281 196.189 28.0545C196.36 28.0929 196.556 28.1138 196.772 28.1138C197.263 28.1138 197.851 28.0138 198.464 27.8204C199.124 27.6166 200.422 26.9546 201.294 26.431C202.335 25.8261 203.596 24.8828 204.129 24.3718C204.247 24.2372 204.52 23.9076 204.52 23.7482L204.514 23.6301L204.52 23.6241V23.6235ZM197.695 27.2128V27.2639C197.678 27.2699 197.662 27.2721 197.643 27.276C197.64 27.2617 197.635 27.2474 197.629 27.2331C197.647 27.2271 197.67 27.221 197.695 27.2128ZM195.002 25.8684C195 25.8541 194.998 25.836 194.998 25.8135C194.998 25.7827 195 25.7585 195.004 25.7404H195.021V25.8668H195L195.002 25.869L195.002 25.8684ZM198.77 21.827C198.07 22.5055 196.992 23.2285 196.497 23.4219C196.452 23.44 196.407 23.4543 196.367 23.467C196.516 23.1999 196.78 22.7582 196.978 22.4604C198.053 20.8227 199.516 19.5843 200.184 19.4904C200.149 20.1057 199.567 21.0748 198.77 21.827ZM185.233 25.7624C185.233 25.7624 185.239 25.7585 185.241 25.7624H185.233ZM185.48 24.9047C185.48 24.9047 185.468 24.8987 185.459 24.8987L185.474 24.8844H185.453C185.455 24.874 185.462 24.8723 185.474 24.8844C185.474 24.8905 185.476 24.8987 185.477 24.9069L185.48 24.9047ZM185.427 25.1531C185.423 25.1674 185.416 25.1652 185.41 25.1492C185.414 25.1492 185.421 25.1514 185.427 25.1531ZM185.056 26.6991C185.056 26.6524 185.056 26.6299 185.079 26.6524C185.101 26.6524 185.101 26.6991 185.079 26.7216C185.056 26.7683 185.056 26.7442 185.056 26.6991ZM185.333 25.4547V25.3712H185.323C185.329 25.3608 185.335 25.3591 185.335 25.3712C185.357 25.3712 185.357 25.4179 185.335 25.4404C185.335 25.4465 185.335 25.4509 185.332 25.4547H185.333ZM190.741 25.8135H190.761L190.739 25.7909V25.7195L190.761 25.697H190.741C190.743 25.6866 190.749 25.6849 190.761 25.697V25.8129C190.749 25.825 190.743 25.825 190.741 25.8129V25.8135ZM190.694 26.2371V26.186C190.694 26.1695 190.694 26.1574 190.696 26.1453C190.708 26.1453 190.719 26.1475 190.731 26.1491C190.735 26.1777 190.735 26.2101 190.731 26.2365H190.694V26.2371Z" fill="#202020"/>
<path d="M19.6826 1.83301H27.9308C29.7516 1.83301 31.4657 2.24836 33.0233 3.20322C35.5681 4.76354 37.1345 7.015 37.624 9.9664C38.4465 14.9292 35.3451 19.6634 30.4823 20.9188C29.6823 21.1254 28.867 21.2193 28.0418 21.2193C24.7185 21.2204 21.3946 21.2193 18.0712 21.2193H17.9943C17.7839 21.2138 17.7668 21.2034 17.7921 21.0007C17.9234 19.9442 18.4827 19.2173 19.481 18.8377C19.7892 18.7206 20.1145 18.7003 20.4419 18.7003C22.9862 18.7008 25.5299 18.7036 28.0742 18.7003C31.2091 18.6959 33.9589 16.6774 34.9072 13.6903C36.2093 9.58896 33.6084 5.26075 29.3747 4.48004C28.9516 4.40203 28.5264 4.36302 28.0979 4.36302C23.1038 4.36192 18.1102 4.36247 13.1161 4.36192C12.7074 4.36192 12.7716 4.35752 12.7793 4.7064C12.7936 5.3481 12.77 5.99201 12.8986 6.62602C12.9343 6.80183 12.9749 6.97709 13.0123 7.1529C13.0376 7.27212 13.0859 7.31332 13.226 7.28476C13.6364 7.2007 14.0501 7.12543 14.466 7.07433C15.5236 6.94522 16.5829 6.93808 17.6443 7.04576C19.3222 7.21608 20.9204 7.6633 22.4384 8.39565C24.5284 9.40436 26.27 10.84 27.6754 12.686C27.9616 13.0618 28.0528 13.4689 27.91 13.9177C27.7539 14.4072 27.3095 14.7396 26.7969 14.7699C26.7628 14.772 26.7282 14.7731 26.6941 14.7731C24.2872 14.772 21.8791 14.8171 19.4733 14.7589C16.2483 14.6809 13.7128 13.2601 11.8585 10.6224C11.6794 10.3675 11.7492 10.3384 11.4234 10.4911C7.71382 12.2289 5.3805 15.0984 4.5498 19.1019C3.94161 22.0335 4.54595 24.785 6.17879 27.2996C7.48033 29.3049 9.21315 30.8158 11.3965 31.8003C11.758 31.9635 11.6679 31.9602 11.8706 31.6674C13.4227 29.4225 15.5489 28.0819 18.2371 27.6331C18.6931 27.5567 19.1557 27.5243 19.6189 27.5243C21.9401 27.5243 24.2614 27.5243 26.5831 27.5232C26.7645 27.5232 26.9425 27.5342 27.1155 27.5897C27.922 27.8473 28.2451 28.8148 27.7484 29.5175C27.3622 30.0636 26.9221 30.5675 26.4507 31.0427C24.319 33.192 21.7638 34.5495 18.7898 35.1044C16.9686 35.444 15.1445 35.4203 13.3271 35.0511C13.2853 35.0424 13.243 35.0341 13.2018 35.0226C13.0947 34.9924 13.0458 35.0424 13.0205 35.1413C12.9475 35.4231 12.8914 35.7082 12.8486 35.9967C12.7601 36.5928 12.8046 37.1938 12.7711 37.7921C12.7645 37.9141 12.814 37.9663 12.9359 37.9548C12.987 37.9498 13.0387 37.9548 13.0898 37.9548C17.4498 37.9548 21.8099 37.9559 26.17 37.9548C29.995 37.9531 33.4249 35.8725 35.183 32.481C35.9126 31.074 36.2719 29.5736 36.3032 27.9874C36.3208 27.0914 36.2692 26.2085 36.0225 25.3432C35.9329 25.03 35.8077 24.7295 35.7049 24.4213C35.3121 23.2461 35.561 22.2137 36.4137 21.3215C36.4609 21.2721 36.5153 21.2298 36.5669 21.1847C36.6142 21.143 36.6581 21.1452 36.6972 21.1962C36.7444 21.2572 36.7927 21.3171 36.8378 21.3797C37.9091 22.8505 38.5882 24.4828 38.7547 26.2969C39.1228 30.3032 38.0091 33.8227 35.1753 36.7268C33.3282 38.6195 31.0778 39.7914 28.4731 40.2727C27.7303 40.41 26.9815 40.4754 26.2255 40.4749C21.0089 40.4732 15.7923 40.4749 10.5757 40.4727C10.173 40.4727 10.2142 40.5452 10.2202 40.098C10.235 38.9931 10.2565 37.8888 10.2735 36.784C10.285 36.0269 10.3883 35.2835 10.5757 34.5501C10.6658 34.1985 10.7279 34.2682 10.3696 34.1051C7.34243 32.7255 5.03822 30.5713 3.47352 27.6353C2.58952 25.9761 2.06264 24.2053 1.89343 22.3313C1.65663 19.7101 2.18241 17.2312 3.36858 14.8995C4.92779 11.8344 7.29792 9.60215 10.4356 8.18743C10.6564 8.08799 10.657 8.08909 10.5949 7.85119C10.3773 7.01829 10.2741 6.17276 10.2702 5.31129C10.2653 4.2839 10.2372 3.25652 10.2197 2.22858C10.218 2.14287 10.2213 2.05717 10.2175 1.97146C10.2136 1.87311 10.2576 1.83081 10.3554 1.83466C10.4323 1.83795 10.5097 1.83466 10.5867 1.83466H19.6837L19.6826 1.83301ZM23.7493 30.1092L23.7356 30.0488H20.0227C19.7233 30.0488 19.4244 30.0472 19.125 30.0724C17.252 30.2318 15.7027 31.0279 14.4611 32.4321C14.4056 32.4948 14.3347 32.5492 14.31 32.6695C16.028 32.9442 17.7196 32.8541 19.3898 32.3882C21.0056 31.9371 22.4593 31.1751 23.7504 30.1092H23.7493ZM14.3177 9.6472C14.3177 9.68456 14.3116 9.70489 14.3188 9.71587C14.3468 9.75873 14.377 9.80048 14.4105 9.83894C15.6978 11.3212 17.3158 12.1673 19.2799 12.2464C20.7237 12.3047 22.1714 12.2629 23.6169 12.2651C23.6565 12.2651 23.7026 12.2767 23.7323 12.2349C23.1812 11.5773 21.1655 10.4664 19.6815 10.0142C17.9212 9.47743 16.1329 9.34832 14.3171 9.64775H14.3177V9.6472Z" fill="#202020"/>
<path d="M36.7891 2.53886C36.7979 1.40873 37.7154 0.495621 38.8379 0.500016C39.9768 0.504411 40.8926 1.43236 40.8833 2.56963C40.8739 3.77612 39.8581 4.63319 38.7802 4.60243C37.6693 4.57056 36.7809 3.66789 36.7891 2.53941V2.53886ZM40.5449 2.56688C40.5492 1.6197 39.7856 0.846141 38.8422 0.841746C37.894 0.837351 37.1199 1.59883 37.1133 2.5427C37.1072 3.48109 37.8775 4.27883 38.8181 4.27168C39.8944 4.26399 40.5443 3.40142 40.5449 2.56743V2.56688Z" fill="#202020"/>
<path d="M39.3335 2.56038C39.4127 2.43347 39.4374 2.30052 39.4731 2.1725C39.506 2.05383 39.5703 2.00109 39.6934 2.01482C39.7527 2.02142 39.8132 2.01922 39.8731 2.01647C39.9632 2.01208 39.9923 2.05768 39.9917 2.14119C39.9901 2.42358 39.9895 2.70598 39.9928 2.98837C39.9939 3.08342 39.9626 3.13177 39.861 3.12902C39.7692 3.12682 39.6874 3.12352 39.6906 2.99716C39.6945 2.86421 39.6912 2.73125 39.6703 2.5961C39.5753 2.71751 39.5538 2.86036 39.5126 2.99496C39.4841 3.08781 39.4368 3.13836 39.3319 3.14001C39.2193 3.14165 39.1912 3.07298 39.1616 2.98617C39.111 2.83838 39.0962 2.67631 38.9627 2.5483C38.9627 2.68894 38.9605 2.82959 38.9632 2.97024C38.9654 3.07847 38.9204 3.12078 38.8105 3.11913C38.6979 3.11748 38.6605 3.06913 38.6622 2.96365C38.6655 2.69828 38.6655 2.43292 38.6622 2.16756C38.6605 2.06042 38.6984 2.00603 38.8105 2.01537C38.8446 2.01812 38.8792 2.01537 38.9132 2.01537C39.1352 2.01647 39.1341 2.01702 39.2033 2.21865C39.2418 2.33018 39.2544 2.4516 39.3346 2.55983H39.3335V2.56038Z" fill="#202020"/>
<path d="M38.0909 2.01661H38.4491C38.5271 2.01661 38.5799 2.03804 38.5793 2.13143C38.5793 2.21879 38.5628 2.27208 38.4573 2.28362C38.2458 2.30669 38.2458 2.31384 38.2442 2.51986C38.2431 2.67315 38.2381 2.82698 38.2447 2.98027C38.2502 3.10718 38.175 3.11267 38.081 3.11267C37.9871 3.11267 37.9129 3.10608 37.9178 2.97972C37.9239 2.81819 37.9206 2.65557 37.9178 2.49349C37.9151 2.31109 37.9145 2.30065 37.7261 2.28856C37.6014 2.28032 37.5909 2.21659 37.5942 2.12155C37.597 2.04628 37.6343 2.01606 37.7069 2.01661C37.8349 2.01771 37.9629 2.01661 38.0903 2.01661H38.0909Z" fill="#202020"/>
</g>
<defs>
<clipPath id="clip0_315_7724">
<rect width="204.521" height="40" fill="white" transform="translate(0 0.5)"/>
</clipPath>
</defs>
</svg>
