<svg width="24" height="24" viewBox="0 0 24 24" fill="none" xmlns="http://www.w3.org/2000/svg">
<path d="M14.857 16.0001V18.2858C14.857 18.5889 14.7366 18.8796 14.5223 19.0939C14.3079 19.3082 14.0173 19.4287 13.7141 19.4287H5.71415C5.41104 19.4287 5.12035 19.3082 4.90602 19.0939C4.6917 18.8796 4.57129 18.5889 4.57129 18.2858V5.71439C4.57129 5.41128 4.6917 5.1206 4.90602 4.90627C5.12035 4.69194 5.41104 4.57153 5.71415 4.57153H13.7141C14.0173 4.57153 14.3079 4.69194 14.5223 4.90627C14.7366 5.1206 14.857 5.41128 14.857 5.71439V8.0001M11.4284 12.0001H19.4284M19.4284 12.0001L17.1427 9.71439M19.4284 12.0001L17.1427 14.2858" stroke="#D4424C" stroke-width="1.43" stroke-linecap="round" stroke-linejoin="round"/>
</svg>
