<svg width="41" height="40" viewBox="0 0 41 40" fill="none" xmlns="http://www.w3.org/2000/svg">
<path d="M18.8208 1.33398H27.0738C28.8955 1.33398 30.6107 1.74957 32.1691 2.70499C34.7154 4.2662 36.2827 6.51895 36.7725 9.47205C37.5954 14.4377 34.4923 19.1746 29.6267 20.4307C28.8263 20.6374 28.0105 20.7314 27.1848 20.7314C23.8595 20.7325 20.5337 20.7314 17.2085 20.7314H17.1315C16.921 20.7259 16.9039 20.7155 16.9292 20.5126C17.0606 19.4555 17.6202 18.7283 18.6191 18.3484C18.9275 18.2313 19.2529 18.211 19.5805 18.211C22.1263 18.2115 24.6715 18.2143 27.2172 18.211C30.354 18.2066 33.1053 16.1869 34.0541 13.1981C35.357 9.09439 32.7546 4.76369 28.5184 3.98254C28.0951 3.90448 27.6697 3.86545 27.2409 3.86545C22.2439 3.86435 17.2475 3.8649 12.2505 3.86435C11.8415 3.86435 11.9059 3.85995 11.9136 4.20902C11.9279 4.8511 11.9042 5.49537 12.0328 6.12975C12.0686 6.30566 12.1093 6.48102 12.1466 6.65693C12.1719 6.77622 12.2203 6.81745 12.3605 6.78887C12.7711 6.70476 13.1851 6.62945 13.6012 6.57832C14.6594 6.44914 15.7193 6.44199 16.7813 6.54974C18.4602 6.72015 20.0593 7.16762 21.5782 7.9004C23.6693 8.90969 25.412 10.3461 26.8181 12.1932C27.1045 12.5692 27.1958 12.9765 27.0529 13.4256C26.8968 13.9154 26.452 14.248 25.9391 14.2783C25.9051 14.2805 25.8704 14.2816 25.8363 14.2816C23.428 14.2805 21.0186 14.3255 18.6114 14.2673C15.3845 14.1892 12.8475 12.7676 10.9922 10.1284C10.813 9.87335 10.8828 9.84421 10.5568 9.99704C6.84513 11.7358 4.51047 14.607 3.67929 18.6128C3.07075 21.5461 3.67544 24.2991 5.30921 26.8152C6.6115 28.8217 8.34532 30.3334 10.5299 31.3185C10.8916 31.4818 10.8015 31.4785 11.0043 31.1855C12.5573 28.9393 14.6847 27.598 17.3745 27.1489C17.8308 27.0725 18.2936 27.04 18.757 27.04C21.0796 27.04 23.4022 27.04 25.7253 27.0389C25.9067 27.0389 26.0848 27.0499 26.258 27.1055C27.065 27.3633 27.3882 28.3313 26.8913 29.0344C26.5048 29.5808 26.0645 30.0849 25.5928 30.5604C23.4599 32.711 20.9031 34.0693 17.9275 34.6245C16.1052 34.9643 14.2801 34.9406 12.4616 34.5712C12.4199 34.5624 12.3775 34.5542 12.3363 34.5426C12.2291 34.5124 12.1802 34.5624 12.1549 34.6614C12.0818 34.9434 12.0257 35.2287 11.9828 35.5173C11.8943 36.1137 11.9388 36.7151 11.9053 37.3138C11.8987 37.4358 11.9482 37.488 12.0702 37.4765C12.1214 37.4715 12.173 37.4765 12.2242 37.4765C16.5867 37.4765 20.9493 37.4776 25.3119 37.4765C29.1391 37.4748 32.571 35.393 34.3301 31.9996C35.0601 30.5918 35.4196 29.0905 35.451 27.5035C35.4686 26.6069 35.4169 25.7235 35.1701 24.8576C35.0805 24.5443 34.9551 24.2436 34.8523 23.9352C34.4593 22.7594 34.7083 21.7264 35.5615 20.8337C35.6087 20.7842 35.6632 20.7419 35.7148 20.6968C35.7621 20.655 35.8061 20.6572 35.8451 20.7083C35.8924 20.7694 35.9408 20.8293 35.9858 20.892C37.0578 22.3636 37.7373 23.9968 37.9038 25.812C38.2721 29.8205 37.1578 33.342 34.3224 36.2479C32.4742 38.1416 30.2226 39.3142 27.6163 39.7958C26.8731 39.9332 26.1238 39.9986 25.3674 39.9981C20.1478 39.9964 14.9282 39.9981 9.70863 39.9959C9.30568 39.9959 9.34691 40.0684 9.35296 39.6209C9.3678 38.5155 9.38924 37.4105 9.40628 36.305C9.41783 35.5475 9.52117 34.8037 9.70863 34.0699C9.79878 33.718 9.8609 33.7879 9.50248 33.6246C6.47352 32.2442 4.16799 30.0888 2.60238 27.1511C1.71788 25.4909 1.1907 23.7192 1.02139 21.8441C0.784458 19.2214 1.31054 16.741 2.49739 14.408C4.0575 11.3411 6.42899 9.10759 9.56845 7.69206C9.78944 7.59256 9.78999 7.59366 9.72787 7.35563C9.51018 6.52225 9.40683 5.67623 9.40298 4.81427C9.39804 3.78629 9.37 2.75831 9.35241 1.72978C9.35076 1.64403 9.35406 1.55827 9.35021 1.47251C9.34636 1.37411 9.39034 1.33179 9.48819 1.33563C9.56515 1.33893 9.64266 1.33563 9.71962 1.33563H18.8219L18.8208 1.33398ZM22.8898 29.6265L22.8761 29.566H19.1611C18.8615 29.566 18.5624 29.5644 18.2628 29.5896C16.3888 29.7491 14.8386 30.5456 13.5963 31.9507C13.5407 32.0134 13.4698 32.0678 13.4451 32.1882C15.1641 32.463 16.8567 32.3729 18.5278 31.9067C20.1445 31.4554 21.5991 30.6929 22.8909 29.6265H22.8898ZM13.4528 9.15267C13.4528 9.19005 13.4467 9.21039 13.4539 9.22138C13.4819 9.26426 13.5121 9.30604 13.5457 9.34452C14.8337 10.8277 16.4526 11.6742 18.4179 11.7534C19.8625 11.8117 21.311 11.7699 22.7574 11.7721C22.7969 11.7721 22.8431 11.7836 22.8728 11.7419C22.3214 11.0838 20.3045 9.9723 18.8197 9.51988C17.0584 8.9828 15.2691 8.85362 13.4522 9.15321H13.4528V9.15267Z" fill="#202020"/>
<path d="M35.9366 2.04003C35.9454 0.909254 36.8634 -0.00438196 37.9865 1.581e-05C39.1261 0.00441358 40.0424 0.932892 40.0331 2.07081C40.0238 3.278 39.0073 4.13557 37.9288 4.10478C36.8172 4.0729 35.9283 3.16971 35.9366 2.04058V2.04003ZM39.6945 2.06807C39.6989 1.12035 38.9348 0.34634 37.9909 0.341942C37.0421 0.337544 36.2675 1.09946 36.2609 2.04388C36.2549 2.9828 37.0256 3.781 37.9667 3.77385C39.0436 3.76615 39.6939 2.90309 39.6945 2.06862V2.06807Z" fill="#202020"/>
<path d="M38.4833 2.06168C38.5625 1.93469 38.5872 1.80166 38.623 1.67357C38.6559 1.55483 38.7203 1.50206 38.8434 1.5158C38.9028 1.5224 38.9632 1.5202 39.0232 1.51745C39.1133 1.51305 39.1425 1.55868 39.1419 1.64224C39.1403 1.92479 39.1397 2.20735 39.143 2.48991C39.1441 2.58501 39.1128 2.63338 39.0111 2.63064C38.9193 2.62844 38.8374 2.62514 38.8407 2.4987C38.8445 2.36567 38.8412 2.23264 38.8203 2.09741C38.7252 2.2189 38.7038 2.36182 38.6625 2.4965C38.634 2.58941 38.5867 2.63998 38.4817 2.64163C38.369 2.64328 38.341 2.57456 38.3113 2.48771C38.2607 2.33983 38.2459 2.17767 38.1123 2.04958C38.1123 2.19031 38.1101 2.33104 38.1128 2.47177C38.115 2.58006 38.0699 2.62239 37.96 2.62074C37.8473 2.61909 37.8099 2.57072 37.8116 2.46517C37.8149 2.19966 37.8149 1.93414 37.8116 1.66862C37.8099 1.56143 37.8479 1.50701 37.96 1.51635C37.9941 1.5191 38.0287 1.51635 38.0628 1.51635C38.2849 1.51745 38.2838 1.518 38.3531 1.71975C38.3915 1.83134 38.4042 1.95283 38.4844 2.06113H38.4833V2.06168Z" fill="#202020"/>
<path d="M37.2396 1.51759H37.598C37.6761 1.51759 37.7289 1.53902 37.7283 1.63248C37.7283 1.71988 37.7118 1.77321 37.6063 1.78475C37.3946 1.80784 37.3946 1.81498 37.393 2.02113C37.3919 2.1745 37.3869 2.32842 37.3935 2.4818C37.399 2.60878 37.3237 2.61428 37.2297 2.61428C37.1357 2.61428 37.0615 2.60768 37.0665 2.48125C37.0725 2.31963 37.0692 2.15691 37.0665 1.99474C37.0637 1.81224 37.0632 1.80179 36.8746 1.7897C36.7498 1.78145 36.7394 1.71768 36.7427 1.62258C36.7454 1.54727 36.7828 1.51704 36.8554 1.51759C36.9834 1.51868 37.1115 1.51759 37.2391 1.51759H37.2396Z" fill="#202020"/>
</svg>
