<svg width="142" height="120" viewBox="0 0 142 120" fill="none" xmlns="http://www.w3.org/2000/svg">
<path d="M125.366 58.1981V22.2509C125.366 22.2463 125.362 22.2429 125.362 22.2383C125.36 21.9891 125.313 21.7365 125.204 21.4943C125.168 21.4124 125.101 21.3582 125.055 21.2848C125.011 21.2143 124.97 21.1567 124.918 21.0929C124.699 20.828 124.436 20.617 124.123 20.5051C124.113 20.5017 124.109 20.4913 124.099 20.4882L98.621 11.8815C98.6186 11.8805 98.6158 11.8799 98.6133 11.879L63.7425 0.0988889C63.3559 -0.032963 62.9354 -0.032963 62.5488 0.0988889L2.19163 20.5221C2.09051 20.5566 2.01683 20.6271 1.92588 20.6761C1.87347 20.7035 1.81213 20.7007 1.76187 20.7334C1.73043 20.754 1.71748 20.7919 1.68758 20.8144C1.50538 20.9509 1.35894 21.1145 1.23963 21.303C1.21096 21.3483 1.16872 21.381 1.14406 21.4284C1.01643 21.6727 0.950144 21.9416 0.940587 22.2223C0.93997 22.2405 0.92733 22.2559 0.92733 22.2743L0.500039 88.3281C0.495414 89.0484 0.906983 89.7073 1.55717 90.0185L63.84 119.818C64.0946 119.941 64.3696 120 64.6449 120L64.6461 120L64.6474 120C64.927 120 65.2134 119.936 65.4819 119.802L99.5521 102.697C103.961 106.134 109.488 108.204 115.501 108.204C129.836 108.204 141.5 96.5482 141.5 82.2232C141.5 71.3876 134.822 62.0899 125.366 58.1981ZM115.501 56.2425C103.609 56.2425 93.5789 64.2729 90.497 75.1845L74.7063 82.266C73.7672 82.6862 73.3467 83.7882 73.7694 84.7244C74.0786 85.4151 74.7584 85.8242 75.4678 85.8242C75.7246 85.8242 75.9839 85.7718 76.2296 85.6606L89.6316 79.6502C89.5477 80.4971 89.5012 81.3545 89.5012 82.2229C89.5012 84.022 89.6861 85.7786 90.0364 87.4754L77.4689 93.4737C76.5412 93.9167 76.1479 95.0279 76.5912 95.9549C76.9097 96.6228 77.578 97.0137 78.2738 97.0137C78.5421 97.0137 78.8149 96.957 79.0742 96.832L91.0957 91.0939C92.3183 94.4414 94.2026 97.466 96.603 100.011L66.5258 115.111L66.9275 49.4827L121.642 25.1166V57.0056C119.669 56.5253 117.619 56.2425 115.501 56.2425ZM27.2227 34.4962L39.4529 39.599V58.6806L33.4209 52.7232C32.882 52.1915 32.0749 52.0393 31.3791 52.3369L27.2227 54.1138V34.4962ZM30.1845 31.6981L81.6842 10.0891L92.7632 13.8318L41.1383 36.2685L30.1845 31.6981ZM98.018 15.6069L118.394 22.49L65.0506 46.2458L45.903 38.2565L98.018 15.6069ZM63.1466 3.8274L76.3553 8.28942L25.3597 29.6852L8.06057 22.4669L63.1466 3.8274ZM4.6336 25.0707L23.4982 32.942V56.9357C23.4982 57.5604 23.8121 58.1445 24.3349 58.4899C24.8556 58.8331 25.5194 58.8919 26.0925 58.6467L31.6926 56.2521L40.0051 64.4632C40.3621 64.8132 40.835 64.9996 41.3147 64.9996C41.5579 64.9996 41.8012 64.9543 42.0333 64.8563C42.7267 64.5677 43.1771 63.8884 43.1771 63.1386V41.1535L63.2015 49.5088L62.8013 115.193L4.23344 87.1717L4.6336 25.0707ZM115.501 104.482C103.218 104.482 93.2253 94.4965 93.2253 82.2232C93.2253 69.9499 103.218 59.9643 115.501 59.9643C127.783 59.9643 137.776 69.9499 137.776 82.2232C137.776 94.4965 127.783 104.482 115.501 104.482Z" fill="#202020"/>
<path d="M125.794 72.0195L110.219 86.4671L107.518 82.6523C106.924 81.8162 105.76 81.6163 104.921 82.2072C104.08 82.8024 103.882 83.9635 104.476 84.8017L108.407 90.3521C108.719 90.7905 109.203 91.0724 109.737 91.1291C109.801 91.1358 109.865 91.1383 109.928 91.1383C110.397 91.1383 110.849 90.9633 111.195 90.6408L128.327 74.7458C129.082 74.0459 129.125 72.8691 128.425 72.1171C127.724 71.3584 126.542 71.3174 125.794 72.0195Z" fill="#6FA479"/>
</svg>
