<svg width="28" height="28" viewBox="0 0 28 28" fill="none" xmlns="http://www.w3.org/2000/svg">
<path d="M26 23.4998V21.3053C26 20.2148 25.3361 19.2343 24.3237 18.8293L21.6115 17.7444C20.3238 17.2294 18.8563 17.7873 18.236 19.0278L18 19.4998C18 19.4998 14.6667 18.8332 12 16.1665C9.33333 13.4998 8.66667 10.1665 8.66667 10.1665L9.13869 9.93049C10.3792 9.31025 10.9371 7.84269 10.4221 6.55498L9.33718 3.8428C8.93221 2.83037 7.95166 2.1665 6.86125 2.1665H4.66667C3.19391 2.1665 2 3.36041 2 4.83317C2 16.6152 11.5513 26.1665 23.3333 26.1665C24.8061 26.1665 26 24.9726 26 23.4998Z" stroke="#202020" stroke-width="2.5" stroke-linejoin="round"/>
</svg>
