<svg width="20" height="18" viewBox="0 0 20 18" fill="none" xmlns="http://www.w3.org/2000/svg">
<path d="M15.3553 17.357C15.1754 17.357 15.0028 17.2893 14.8755 17.1687C14.7482 17.0482 14.6768 16.8846 14.6768 16.7141C14.6768 16.5436 14.7482 16.3801 14.8755 16.2596C15.0028 16.139 15.1754 16.0713 15.3553 16.0713C15.5353 16.0713 15.7079 16.139 15.8352 16.2596C15.9624 16.3801 16.0339 16.5436 16.0339 16.7141C16.0339 16.8846 15.9624 17.0482 15.8352 17.1687C15.7079 17.2893 15.5353 17.357 15.3553 17.357Z" stroke="#464547" stroke-width="1.42857" stroke-linecap="round" stroke-linejoin="round"/>
<path d="M6.53404 17.357C6.35407 17.357 6.18147 17.2893 6.05422 17.1687C5.92696 17.0482 5.85547 16.8846 5.85547 16.7141C5.85547 16.5436 5.92696 16.3801 6.05422 16.2596C6.18147 16.139 6.35407 16.0713 6.53404 16.0713C6.71401 16.0713 6.88661 16.139 7.01386 16.2596C7.14112 16.3801 7.21261 16.5436 7.21261 16.7141C7.21261 16.8846 7.14112 17.0482 7.01386 17.1687C6.88661 17.2893 6.71401 17.357 6.53404 17.357Z" stroke="#464547" stroke-width="1.42857" stroke-linecap="round" stroke-linejoin="round"/>
<path d="M10 9.99976L13 6.99976M13 9.99976L10 6.99976" stroke="#464547" stroke-width="1.43" stroke-linecap="round"/>
<path d="M1 0.499756H4.39286L4.74979 3.71404M4.74979 3.71404L5.62243 11.5633C5.65762 11.8791 5.8149 12.1713 6.06396 12.3838C6.31303 12.5963 6.63627 12.7139 6.97143 12.714H15.5486C15.8511 12.714 16.145 12.6183 16.3835 12.4419C16.622 12.2656 16.7915 12.0188 16.865 11.7408L18.5614 5.31218C18.6116 5.12261 18.6154 4.9247 18.5727 4.7335C18.53 4.5423 18.4418 4.36284 18.3149 4.20877C18.188 4.05469 18.0256 3.93006 17.8403 3.84433C17.6549 3.75861 17.4513 3.71405 17.245 3.71404H4.74979Z" stroke="#464547" stroke-width="1.42857" stroke-linecap="round" stroke-linejoin="round"/>
</svg>
