<svg width="24" height="24" viewBox="0 0 24 24" fill="none" xmlns="http://www.w3.org/2000/svg">
<path d="M8.39648 12.5737C5.59898 12.5737 3.33398 11.1112 3.33398 9.30369C3.33398 7.49619 5.58398 6.03369 8.39648 6.03369C11.209 6.03369 13.459 7.49619 13.459 9.30369C13.4473 9.52166 13.4197 9.73848 13.3765 9.95244" stroke="#202020" stroke-width="1.5"/>
<path d="M8.39602 10.0988C9.07533 10.0988 9.62602 9.74286 9.62602 9.30379C9.62602 8.86472 9.07533 8.50879 8.39602 8.50879C7.7167 8.50879 7.16602 8.86472 7.16602 9.30379C7.16602 9.74286 7.7167 10.0988 8.39602 10.0988Z" stroke="#202020" stroke-width="1.5"/>
<path d="M3.33398 9.30371V14.4375C3.33398 17.4 5.73398 17.9662 8.69648 17.9662H20.6665V12.5737H8.39648V15.3637M17.5427 12.5737V15.3637M14.494 12.5737V15.3637M11.4452 12.5737V15.3637" stroke="#202020" stroke-width="1.5"/>
</svg>
