<svg width="25" height="24" viewBox="0 0 25 24" fill="none" xmlns="http://www.w3.org/2000/svg">
<path d="M22.4866 16.8559C22.4634 16.7442 22.4119 16.6403 22.337 16.5543C22.2622 16.4682 22.1665 16.4028 22.0592 16.3642C22.0267 16.3526 19.6468 15.4576 18.476 12.262L20.0843 11.6187C20.2485 11.5524 20.3796 11.4235 20.4488 11.2606C20.5181 11.0976 20.5197 10.9138 20.4534 10.7495C20.3871 10.5853 20.2583 10.4542 20.0953 10.385C19.9323 10.3157 19.7485 10.3141 19.5843 10.3804L18.0994 10.9745C17.9169 10.106 17.8281 9.22047 17.8344 8.33302C17.8344 6.91862 17.2725 5.56214 16.2724 4.56201C15.2723 3.56187 13.9158 3 12.5014 3C11.087 3 9.7305 3.56187 8.73037 4.56201C7.73023 5.56214 7.16836 6.91862 7.16836 8.33302C7.17357 9.22179 7.08475 10.1086 6.90337 10.9787L5.41846 10.3804C5.33716 10.3476 5.25018 10.3311 5.1625 10.3319C5.07482 10.3327 4.98816 10.3507 4.90745 10.385C4.82675 10.4193 4.75358 10.4691 4.69214 10.5316C4.6307 10.5942 4.58217 10.6682 4.54935 10.7495C4.51652 10.8309 4.50002 10.9178 4.50081 11.0055C4.50159 11.0932 4.51964 11.1799 4.55392 11.2606C4.5882 11.3413 4.63804 11.4144 4.70059 11.4759C4.76314 11.5373 4.83718 11.5858 4.91849 11.6187L6.53256 12.2645C6.20182 13.1885 5.70037 14.0422 5.05432 14.781C4.01104 15.9592 2.94861 16.3642 2.94111 16.3642C2.83375 16.4028 2.73809 16.4683 2.66329 16.5545C2.58849 16.6406 2.53704 16.7445 2.51388 16.8562C2.49072 16.9679 2.49662 17.0837 2.531 17.1925C2.56539 17.3013 2.62712 17.3994 2.71029 17.4775C3.30192 18.0333 4.1827 18.12 5.03348 18.2041C5.55929 18.2558 6.10259 18.3099 6.39924 18.4733C6.68005 18.6283 6.97004 19.0249 7.25002 19.4082C7.7 20.0257 8.2108 20.7248 9.01992 20.9315C9.77571 21.1256 10.549 20.8623 11.2315 20.6298C11.6939 20.4723 12.1314 20.3232 12.4989 20.3232C12.8664 20.3232 13.3038 20.4723 13.7663 20.6298C14.2829 20.8056 14.8496 20.999 15.4245 20.999C15.6111 21 15.797 20.9774 15.9778 20.9315C16.7861 20.7248 17.2969 20.0257 17.7469 19.4082C18.0269 19.0249 18.3169 18.6283 18.5977 18.4733C18.8943 18.3066 19.4376 18.2558 19.9634 18.2041C20.8142 18.1208 21.695 18.0333 22.2866 17.4775C22.3705 17.3997 22.4329 17.3017 22.468 17.1928C22.503 17.084 22.5094 16.9679 22.4866 16.8559ZM19.8351 16.8775C19.176 16.9425 18.4952 17.01 17.9577 17.305C17.4203 17.6 17.0411 18.1208 16.6736 18.6224C16.3403 19.0791 15.9945 19.5524 15.6504 19.6399C15.2787 19.7357 14.7537 19.5565 14.1988 19.3674C13.6438 19.1782 13.0897 18.9899 12.5014 18.9899C11.9131 18.9899 11.3489 19.1816 10.804 19.3674C10.259 19.5532 9.72071 19.7357 9.3524 19.6399C9.00825 19.5524 8.66327 19.0791 8.32912 18.6224C7.96331 18.1225 7.585 17.6025 7.04503 17.305C6.50506 17.0075 5.82677 16.9425 5.16848 16.8775C5.03932 16.865 4.90599 16.8517 4.7735 16.8367C5.21813 16.5101 5.62828 16.1391 5.99759 15.7293C6.69505 14.9568 7.47417 13.7935 7.97581 12.1353L7.98081 12.1245C7.99791 12.0811 8.01074 12.0362 8.01914 11.9903C8.3503 10.7998 8.51271 9.56869 8.50162 8.33302C8.50162 7.27222 8.92302 6.25486 9.67312 5.50476C10.4232 4.75466 11.4406 4.33326 12.5014 4.33326C13.5622 4.33326 14.5795 4.75466 15.3296 5.50476C16.0797 6.25486 16.5011 7.27222 16.5011 8.33302C16.49 9.56957 16.6527 10.8015 16.9845 11.9928C16.9929 12.0387 17.0057 12.0836 17.0228 12.127L17.0278 12.1378C17.5278 13.796 18.3085 14.9593 19.006 15.7318C19.3753 16.1416 19.7855 16.5126 20.2301 16.8392C20.0976 16.8517 19.9651 16.865 19.8343 16.8775H19.8351Z" fill="#202020"/>
</svg>
