<svg width="32" height="33" viewBox="0 0 32 33" fill="none" xmlns="http://www.w3.org/2000/svg">
<path d="M26.6663 16.8333V24.8333C26.6663 27.7788 24.2785 30.1666 21.333 30.1666H10.6663C7.72082 30.1666 5.33301 27.7788 5.33301 24.8333V16.8333" stroke="#202020" stroke-width="2.5" stroke-linejoin="round"/>
<path d="M22.3586 3.5H9.64195C7.21881 3.5 5.0398 5.15967 4.13987 7.69073L3.12922 10.5332C2.82329 11.3936 2.61182 12.3143 2.83496 13.1998C3.36342 15.297 5.07793 16.8333 7.11139 16.8333C9.56598 16.8333 11.5558 14.5948 11.5558 11.8333C11.5558 14.5948 13.5457 16.8333 16.0003 16.8333C18.4549 16.8333 20.4447 14.5948 20.4447 11.8333C20.4447 14.5948 22.4346 16.8333 24.8892 16.8333C26.9226 16.8333 28.6371 15.297 29.1656 13.1998C29.3887 12.3143 29.1773 11.3936 28.8713 10.5332L27.8607 7.69073C26.9608 5.15967 24.7817 3.5 22.3586 3.5Z" stroke="#202020" stroke-width="2.5" stroke-linejoin="round"/>
<path d="M12 26.1665C12 23.9574 13.7909 22.1665 16 22.1665C18.2091 22.1665 20 23.9574 20 26.1665V30.1665H12V26.1665Z" stroke="#202020" stroke-width="2.5" stroke-linejoin="round"/>
</svg>
