<svg width="24" height="24" viewBox="0 0 24 24" fill="none" xmlns="http://www.w3.org/2000/svg">
    <path
        d="M21.5 6.75C20.3069 6.74876 19.163 6.27425 18.3194 5.43061C17.4757 4.58697 17.0012 3.44309 17 2.25C17 2.05109 16.921 1.86032 16.7803 1.71967C16.6397 1.57902 16.4489 1.5 16.25 1.5H12.5C12.3011 1.5 12.1103 1.57902 11.9697 1.71967C11.829 1.86032 11.75 2.05109 11.75 2.25V14.625C11.7498 14.9605 11.6597 15.2898 11.4889 15.5786C11.3181 15.8674 11.0729 16.1051 10.779 16.2668C10.485 16.4286 10.153 16.5085 9.81768 16.4983C9.48232 16.488 9.15586 16.388 8.87234 16.2085C8.58883 16.0291 8.35865 15.7769 8.20582 15.4782C8.05299 15.1795 7.9831 14.8453 8.00345 14.5104C8.0238 14.1755 8.13364 13.8522 8.32151 13.5742C8.50939 13.2962 8.76841 13.0738 9.07156 12.93C9.1998 12.8691 9.30813 12.7731 9.38397 12.6532C9.45981 12.5332 9.50005 12.3941 9.5 12.2522V8.25C9.50005 8.14037 9.47606 8.03206 9.42972 7.9327C9.38339 7.83334 9.31584 7.74535 9.23182 7.67492C9.1478 7.60449 9.04937 7.55333 8.94345 7.52505C8.83752 7.49678 8.72669 7.49206 8.61875 7.51125C5.27281 8.1075 2.75 11.1656 2.75 14.625C2.75 16.5147 3.50067 18.3269 4.83686 19.6631C6.17306 20.9993 7.98533 21.75 9.875 21.75C11.7647 21.75 13.5769 20.9993 14.9131 19.6631C16.2493 18.3269 17 16.5147 17 14.625V10.9022C18.389 11.6269 19.9333 12.0036 21.5 12C21.6989 12 21.8897 11.921 22.0303 11.7803C22.171 11.6397 22.25 11.4489 22.25 11.25V7.5C22.25 7.30109 22.171 7.11032 22.0303 6.96967C21.8897 6.82902 21.6989 6.75 21.5 6.75ZM20.75 10.4662C19.2843 10.3364 17.8809 9.81329 16.6878 8.95219C16.5757 8.87156 16.4434 8.82347 16.3057 8.81321C16.168 8.80295 16.0301 8.83092 15.9072 8.89404C15.7844 8.95716 15.6814 9.05298 15.6095 9.17093C15.5376 9.28888 15.4997 9.42438 15.5 9.5625V14.625C15.5 16.1168 14.9074 17.5476 13.8525 18.6025C12.7976 19.6574 11.3668 20.25 9.875 20.25C8.38316 20.25 6.95242 19.6574 5.89752 18.6025C4.84263 17.5476 4.25 16.1168 4.25 14.625C4.25 12.1969 5.81 10.0191 8 9.225V11.8191C7.51517 12.143 7.12254 12.587 6.86037 13.1079C6.59821 13.6287 6.47545 14.2086 6.50407 14.7909C6.53268 15.3733 6.7117 15.9384 7.02366 16.431C7.33562 16.9236 7.76989 17.327 8.28414 17.6018C8.79839 17.8767 9.37508 18.0136 9.958 17.9993C10.5409 17.9849 11.1102 17.8198 11.6103 17.52C12.1104 17.2202 12.5243 16.796 12.8117 16.2886C13.099 15.7812 13.2501 15.2081 13.25 14.625V3H15.5469C15.7155 4.32101 16.318 5.54866 17.2597 6.49034C18.2013 7.43203 19.429 8.03446 20.75 8.20312V10.4662Z"
        fill="#202020" />
</svg>