<svg width="25" height="24" viewBox="0 0 25 24" fill="none" xmlns="http://www.w3.org/2000/svg">
<g clip-path="url(#clip0_207_27880)">
<path d="M7.98244 8.76748C8.15661 8.21498 8.63077 7.55331 8.97411 7.38415C9.12661 7.30915 9.23994 7.29248 9.60994 7.29248C10.0449 7.29248 10.0666 7.29665 10.1799 7.40915C10.2533 7.48831 10.4533 7.91415 10.7408 8.60248C10.9841 9.19415 11.1849 9.69831 11.1849 9.72498C11.1849 9.84665 10.9408 10.2333 10.6624 10.56C10.4708 10.7825 10.3583 10.9516 10.3583 11.0125C10.3583 11.0691 10.4974 11.33 10.6716 11.5875C11.0933 12.2183 11.8716 13.0008 12.4774 13.4016C12.9508 13.715 13.7958 14.1241 13.9649 14.1241C14.0916 14.1241 14.3224 13.8975 14.7916 13.3058C14.9833 13.0666 15.1533 12.8933 15.2183 12.88C15.2749 12.8625 15.4141 12.8841 15.5266 12.9275C15.8533 13.0541 17.5024 13.8583 17.5899 13.9366C17.7591 14.0933 17.6208 14.99 17.3674 15.355C16.9808 15.9216 15.8758 16.4041 15.1483 16.33C14.6183 16.2733 13.3649 15.86 12.5508 15.4725C11.5066 14.9725 10.4058 14.0583 9.51411 12.9408C9.00494 12.305 8.49161 11.5308 8.26994 11.0691C7.96994 10.4433 7.86077 9.95998 7.89077 9.40248C7.90411 9.16331 7.94744 8.87665 7.98244 8.76748Z" fill="white"/>
<path fill-rule="evenodd" clip-rule="evenodd" d="M3.00513 9.91657C3.81847 5.7424 7.1468 2.63323 11.4243 2.0499C12.0118 1.96657 13.661 1.99323 14.231 2.08823C14.8268 2.19323 15.6143 2.3974 16.0976 2.5799C19.291 3.76823 21.6501 6.51323 22.3193 9.81573C22.611 11.2566 22.546 12.9449 22.1501 14.3632C21.206 17.7216 18.4643 20.3674 15.0576 21.2116C12.8385 21.7599 10.506 21.5199 8.40513 20.5366L7.89097 20.2932L5.20263 21.1507C3.72763 21.6207 2.50847 21.9949 2.50013 21.9857C2.4918 21.9774 2.87513 20.8066 3.35763 19.3924L4.23263 16.8124L3.8793 16.1124C2.90013 14.1407 2.60013 12.0082 3.0043 9.9149L3.00513 9.91657ZM20.6485 9.57657C19.7918 6.44323 17.0676 4.0549 13.861 3.6199C12.1118 3.3849 10.4626 3.65073 8.9443 4.41657C5.26347 6.27823 3.5093 10.5341 4.83597 14.3807C5.00597 14.8724 5.46263 15.7991 5.74597 16.2249L5.9718 16.5649L5.46763 18.0441C5.29237 18.5465 5.12402 19.0512 4.96263 19.5582C4.96263 19.5799 5.66263 19.3716 6.51597 19.1016C7.04208 18.9307 7.56988 18.7652 8.0993 18.6049C8.11763 18.6049 8.2868 18.6966 8.4743 18.8049C10.4976 20.0107 13.021 20.2716 15.2968 19.5149C16.6089 19.0784 17.7906 18.32 18.7339 17.3089C19.6773 16.2979 20.3521 15.0665 20.6968 13.7274C21.031 12.3621 21.0144 10.9345 20.6485 9.5774V9.57657Z" fill="white"/>
</g>
<defs>
<clipPath id="clip0_207_27880">
<rect width="20" height="20" fill="white" transform="translate(2.5 2)"/>
</clipPath>
</defs>
</svg>
