<svg width="21" height="20" viewBox="0 0 21 20" fill="none" xmlns="http://www.w3.org/2000/svg">
<path d="M10.4973 4.86903C7.65795 4.86903 5.36644 7.16058 5.36644 10C5.36644 12.8394 7.65795 15.131 10.4973 15.131C13.3367 15.131 15.6282 12.8394 15.6282 10C15.6282 7.16058 13.3367 4.86903 10.4973 4.86903ZM10.4973 13.3348C8.66111 13.3348 7.16262 11.8362 7.16262 10C7.16262 8.16376 8.66111 6.66525 10.4973 6.66525C12.3335 6.66525 13.832 8.16376 13.832 10C13.832 11.8362 12.3335 13.3348 10.4973 13.3348ZM15.8383 3.46308C15.1754 3.46308 14.64 3.99845 14.64 4.66139C14.64 5.32434 15.1754 5.8597 15.8383 5.8597C16.5013 5.8597 17.0366 5.32684 17.0366 4.66139C17.0368 4.50397 17.0059 4.34806 16.9458 4.20259C16.8856 4.05711 16.7974 3.92493 16.6861 3.81362C16.5748 3.70231 16.4426 3.61405 16.2971 3.5539C16.1516 3.49375 15.9957 3.46289 15.8383 3.46308ZM20.4989 10C20.4989 8.61907 20.5114 7.25064 20.4338 5.87221C20.3563 4.27113 19.9911 2.85017 18.8203 1.67938C17.647 0.506085 16.2286 0.14334 14.6275 0.065788C13.2466 -0.0117644 11.8782 0.000744113 10.4998 0.000744113C9.11891 0.000744113 7.75051 -0.0117644 6.3721 0.065788C4.77105 0.14334 3.35012 0.508587 2.17935 1.67938C1.00608 2.85267 0.643338 4.27113 0.565787 5.87221C0.488236 7.25314 0.500744 8.62157 0.500744 10C0.500744 11.3784 0.488236 12.7494 0.565787 14.1278C0.643338 15.7289 1.00858 17.1498 2.17935 18.3206C3.35262 19.4939 4.77105 19.8567 6.3721 19.9342C7.75301 20.0118 9.12141 19.9993 10.4998 19.9993C11.8807 19.9993 13.2491 20.0118 14.6275 19.9342C16.2286 19.8567 17.6495 19.4914 18.8203 18.3206C19.9936 17.1473 20.3563 15.7289 20.4338 14.1278C20.5139 12.7494 20.4989 11.3809 20.4989 10ZM18.2974 15.899C18.1148 16.3543 17.8947 16.6945 17.5419 17.0448C17.1892 17.3975 16.8515 17.6176 16.3962 17.8003C15.0803 18.3231 11.9558 18.2055 10.4973 18.2055C9.03885 18.2055 5.9118 18.3231 4.59593 17.8028C4.14064 17.6201 3.80041 17.4 3.45018 17.0473C3.09745 16.6945 2.87731 16.3568 2.69469 15.9015C2.17434 14.5831 2.29192 11.4585 2.29192 10C2.29192 8.54151 2.17434 5.4144 2.69469 4.09851C2.87731 3.6432 3.09745 3.30298 3.45018 2.95274C3.80291 2.6025 4.14064 2.37985 4.59593 2.19723C5.9118 1.67688 9.03885 1.79446 10.4973 1.79446C11.9558 1.79446 15.0828 1.67688 16.3987 2.19723C16.854 2.37985 17.1942 2.6 17.5444 2.95274C17.8972 3.30548 18.1173 3.6432 18.2999 4.09851C18.8203 5.4144 18.7027 8.54151 18.7027 10C18.7027 11.4585 18.8203 14.5831 18.2974 15.899Z" fill="white"/>
</svg>
